<svg id="Layer_1" data-name="Layer 1" xmlns="http://www.w3.org/2000/svg" viewBox="0 0 777.93 169.67" style=""><defs><style>.cls-1{fill:#fff;stroke:#fbb03b;stroke-linecap:square;stroke-miterlimit:10;stroke-width:10px}.cls-4{letter-spacing:.1em}.cls-9{letter-spacing:.09em}</style></defs><path class="cls-1 TykpvgKV_0" d="M158.75 42.13a28.39 28.39 0 0 0-28.31 28.31v101.92a28.31 28.31 0 0 0 56.62 0V70.44a28.39 28.39 0 0 0-28.31-28.31zM331.44 41H229.52a28.39 28.39 0 0 0-28.31 28.31v101.92a28.31 28.31 0 1 0 56.62 0V97.62h14.72v74.74a28.31 28.31 0 0 0 56.62 0V97.62h2.26a28.31 28.31 0 0 0 0-56.62z" transform="translate(-125.44 -36)"></path><text transform="translate(249.96 113.24)" font-family="ProductSans-Bold,Product Sans" font-weight="700" font-size="72" fill="#2e3192" letter-spacing=".1em">ME<tspan x="117.72" y="0" letter-spacing=".07em">D</tspan><tspan class="cls-4" x="174.53" y="0">AN</tspan><tspan x="292.53" y="0" letter-spacing=".06em"> </tspan><tspan class="cls-4" x="312.69" y="0">T</tspan><tspan x="361.87" y="0" letter-spacing=".08em">E</tspan><tspan x="409.24" y="0">CH</tspan></text><text transform="translate(253.96 139.37)" font-size="24" fill="#4d4d4d" letter-spacing=".1em" font-family="ProductSans-Bold,Product Sans" font-weight="700">THE LEADI<tspan class="cls-9" x="139.73" y="0">N</tspan><tspan x="159.24" y="0">G I</tspan><tspan class="cls-9" x="197.85" y="0">N</tspan><tspan x="217.37" y="0" letter-spacing=".07em">O</tspan><tspan x="238.77" y="0" letter-spacing=".03em">V</tspan><tspan x="255.81" y="0" letter-spacing=".04em">A</tspan><tspan x="273.84" y="0">T</tspan><tspan x="290.23" y="0" letter-spacing=".09em">I</tspan><tspan x="299.09" y="0">ON </tspan><tspan x="348.64" y="0" letter-spacing=".09em">F</tspan><tspan x="364.2" y="0">OR FUTURE</tspan></text><style data-made-with="vivus-instant">.TykpvgKV_0{stroke-dasharray:1137 1139;stroke-dashoffset:1138;animation:TykpvgKV_draw_0 9400ms ease-in 0ms infinite,TykpvgKV_fade 9400ms linear 0ms infinite;}@keyframes TykpvgKV_draw{100%{stroke-dashoffset:0;}}@keyframes TykpvgKV_fade{0%{stroke-opacity:1;}95.74468085106383%{stroke-opacity:1;}100%{stroke-opacity:0;}}@keyframes TykpvgKV_draw_0{4.25531914893617%{stroke-dashoffset: 1138}43.97163120567376%{ stroke-dashoffset: 0;}100%{ stroke-dashoffset: 0;}}</style></svg>