<svg id="Layer_2" data-name="Layer 2" xmlns="http://www.w3.org/2000/svg" viewBox="0 0 773.75 538.76"><defs><style>.cls-1{fill:#fff;}</style></defs><title>logo-white-nbd</title><path class="cls-1" d="M105.52,34.73C53,34.73,10,77.72,10,130.26V474.15c0,52.54,43,95.52,95.52,95.52s95.52-43,95.52-95.52V130.26C201,77.72,158.06,34.73,105.52,34.73Z" transform="translate(-10 -30.91)"/><path class="cls-1" d="M688.23,30.91H344.34c-52.54,0-95.52,43-95.52,95.52V470.32c0,52.54,43,95.52,95.52,95.52s95.52-43,95.52-95.52V222h49.67V474.15c0,52.54,43,95.52,95.52,95.52s95.52-43,95.52-95.52V222h7.64c52.54,0,95.52-43,95.52-95.52S740.76,30.91,688.23,30.91Z" transform="translate(-10 -30.91)"/></svg>