<svg xmlns="http://www.w3.org/2000/svg" xmlns:xlink="http://www.w3.org/1999/xlink" viewBox="0 0 639.2 752"><defs><style>.cls-1{isolation:isolate;}.cls-2,.cls-22,.cls-28{opacity:0.32;}.cls-2,.cls-22,.cls-28,.cls-33{mix-blend-mode:multiply;}.cls-3{fill:url(#linear-gradient);}.cls-4{fill:#1ae5ff;}.cls-5{opacity:0.53;}.cls-6{opacity:0.37;}.cls-7{fill:#8ed2ff;}.cls-8{opacity:0.47;}.cls-9{fill:#7974f5;}.cls-10{fill:url(#linear-gradient-2);}.cls-11{fill:url(#linear-gradient-3);}.cls-12{fill:url(#linear-gradient-4);}.cls-13{fill:url(#linear-gradient-5);}.cls-14{fill:url(#linear-gradient-6);}.cls-15{fill:#f9fbfc;}.cls-16{fill:#113c7a;}.cls-17{fill:#fff;}.cls-18{fill:#cfe3ff;}.cls-19{fill:url(#linear-gradient-7);}.cls-20{fill:none;}.cls-21{fill:url(#linear-gradient-8);}.cls-22{fill:url(#linear-gradient-9);}.cls-23{fill:#ff9d6f;}.cls-24{fill:url(#linear-gradient-10);}.cls-25{fill:url(#linear-gradient-11);}.cls-26{fill:#ff7c40;}.cls-27{fill:#843837;}.cls-28{fill:url(#linear-gradient-12);}.cls-29{fill:#f5b697;}.cls-30{fill:#5167b0;}.cls-31{fill:url(#linear-gradient-13);}.cls-32{fill:url(#linear-gradient-14);}.cls-33{opacity:0.43;fill:url(#linear-gradient-15);}.cls-34{fill:url(#linear-gradient-16);}.cls-35{opacity:0.57;}</style><linearGradient id="linear-gradient" x1="-122.66" y1="652.78" x2="129.81" y2="652.78" gradientTransform="matrix(-1, 0, 0, 1, 500.82, 0)" gradientUnits="userSpaceOnUse"><stop offset="0" stop-color="#5155d4"/><stop offset="1" stop-color="#45f7ff"/></linearGradient><linearGradient id="linear-gradient-2" x1="404.36" y1="116.22" x2="673.81" y2="116.22" gradientUnits="userSpaceOnUse"><stop offset="0" stop-color="#7f5eff"/><stop offset="0.24" stop-color="#8665ff"/><stop offset="0.6" stop-color="#9978ff"/><stop offset="0.94" stop-color="#b391ff"/></linearGradient><linearGradient id="linear-gradient-3" x1="657.71" y1="691.59" x2="657.71" y2="228.44" gradientUnits="userSpaceOnUse"><stop offset="0" stop-color="#5745ff"/><stop offset="0.19" stop-color="#5e49ff"/><stop offset="0.46" stop-color="#7253ff"/><stop offset="0.78" stop-color="#9164ff"/><stop offset="0.94" stop-color="#a46eff"/></linearGradient><linearGradient id="linear-gradient-4" x1="605.2" y1="823.37" x2="502.32" y2="232.69" xlink:href="#linear-gradient-2"/><linearGradient id="linear-gradient-5" x1="524.12" y1="166.99" x2="524.12" y2="200.67" xlink:href="#linear-gradient-2"/><linearGradient id="linear-gradient-6" x1="522.9" y1="656.12" x2="522.9" y2="515.23" gradientUnits="userSpaceOnUse"><stop offset="0" stop-color="#9a79ff"/><stop offset="0.94" stop-color="#b391ff"/></linearGradient><linearGradient id="linear-gradient-7" x1="491.17" y1="188.97" x2="551.03" y2="311.36" gradientUnits="userSpaceOnUse"><stop offset="0" stop-color="#9a79ff"/><stop offset="0.34" stop-color="#ba76e8"/><stop offset="0.94" stop-color="#fb6fb9"/></linearGradient><linearGradient id="linear-gradient-8" x1="513.85" y1="384.72" x2="513.85" y2="512.55" gradientTransform="matrix(1, 0, 0, 1, 0, 0)" xlink:href="#linear-gradient"/><linearGradient id="linear-gradient-9" x1="231.92" y1="711.57" x2="368.01" y2="711.57" gradientTransform="matrix(1, 0, 0, 1, 0, 0)" xlink:href="#linear-gradient"/><linearGradient id="linear-gradient-10" x1="396.22" y1="593.64" x2="378.91" y2="728.38" gradientUnits="userSpaceOnUse"><stop offset="0" stop-color="#6851f5"/><stop offset="1" stop-color="#00cfff"/></linearGradient><linearGradient id="linear-gradient-11" x1="387.3" y1="658.92" x2="431.46" y2="658.92" xlink:href="#linear-gradient-10"/><linearGradient id="linear-gradient-12" x1="17.4" y1="644.58" x2="153.49" y2="644.58" gradientTransform="matrix(1, 0, 0, 1, 0, 0)" xlink:href="#linear-gradient"/><linearGradient id="linear-gradient-13" x1="830.89" y1="537.53" x2="859.33" y2="385.84" gradientTransform="matrix(-1, 0, 0, 1, 1085.2, 0)" xlink:href="#linear-gradient-2"/><linearGradient id="linear-gradient-14" x1="874.84" y1="520.28" x2="932.45" y2="405.78" gradientTransform="matrix(-1, 0, 0, 1, 1085.2, 0)" xlink:href="#linear-gradient-2"/><linearGradient id="linear-gradient-15" x1="868.25" y1="499.94" x2="920.27" y2="499.94" gradientTransform="matrix(-1, 0, 0, 1, 1085.2, 0)" gradientUnits="userSpaceOnUse"><stop offset="0" stop-color="#ff4f00"/><stop offset="1" stop-color="#ff3d9d"/></linearGradient><linearGradient id="linear-gradient-16" x1="891.32" y1="412.04" x2="892.78" y2="506.12" gradientTransform="matrix(-1, 0, 0, 1, 1085.2, 0)" xlink:href="#linear-gradient-2"/></defs><title>ukk-isometric</title><g class="cls-1"><g id="Layer_1" data-name="Layer 1"><g class="cls-2"><path class="cls-3" d="M375.14,604.19c-5.48,3.16-5.5,8.28-.06,11.44L557,721.33c5.44,3.16,14.26,3.16,19.74,0l42.65-20c5.47-3.16,5.51-8.27.06-11.44L437.53,584.22c-5.43-3.16-14.28-3.16-19.74,0Z" transform="translate(-114.73 -20)"/></g><path class="cls-4" d="M325.05,162.48V167a3.48,3.48,0,0,0,5.22,3L351.7,157.6a3.48,3.48,0,0,0,1.73-3V150a3.48,3.48,0,0,0-5.22-3l-21.42,12.43A3.48,3.48,0,0,0,325.05,162.48Z" transform="translate(-114.73 -20)"/><path class="cls-4" d="M257.3,224.17v4.55a3.48,3.48,0,0,0,5.22,3l89.23-51.52a3.48,3.48,0,0,0,1.74-3v-4.55a3.48,3.48,0,0,0-5.22-3L259,221.14A3.48,3.48,0,0,0,257.3,224.17Z" transform="translate(-114.73 -20)"/><g class="cls-5"><path class="cls-4" d="M294.22,248.14v4.55a3.48,3.48,0,0,0,5.22,3l52.44-30.28a3.48,3.48,0,0,0,1.74-3v-4.55a3.48,3.48,0,0,0-5.22-3L296,245.12A3.48,3.48,0,0,0,294.22,248.14Z" transform="translate(-114.73 -20)"/></g><path class="cls-4" d="M271.2,238.78v4.55a3.48,3.48,0,0,0,5.22,3l75.39-43.53a3.48,3.48,0,0,0,1.74-3v-4.55a3.48,3.48,0,0,0-5.22-3l-75.39,43.53A3.48,3.48,0,0,0,271.2,238.78Z" transform="translate(-114.73 -20)"/><g class="cls-6"><path class="cls-7" d="M737.78,231.25a3.91,3.91,0,0,1,1.77,3.07l-.09,30.92c0,1.13-.8,1.58-1.78,1l-39.15-22.6a3.91,3.91,0,0,1-1.78-3.07l.09-30.92c0-1.13.8-1.59,1.79-1Z" transform="translate(-114.73 -20)"/></g><g class="cls-8"><path class="cls-9" d="M752.16,286.26a3.91,3.91,0,0,1,1.77,3.07l-.09,30.92c0,1.13-.8,1.58-1.78,1l-39.15-22.6a3.91,3.91,0,0,1-1.78-3.07l.09-30.92c0-1.13.8-1.59,1.79-1Z" transform="translate(-114.73 -20)"/></g><g class="cls-6"><path class="cls-7" d="M354,315.44a2.53,2.53,0,0,1,1.15,2l-.06,20c0,.73-.52,1-1.15.66l-25.29-14.6a2.53,2.53,0,0,1-1.15-2l.06-20c0-.73.52-1,1.15-.66Z" transform="translate(-114.73 -20)"/></g><g class="cls-8"><path class="cls-9" d="M363.3,351a2.53,2.53,0,0,1,1.15,2l-.06,20c0,.73-.52,1-1.15.66L337.95,359a2.53,2.53,0,0,1-1.15-2l.06-20c0-.73.52-1,1.15-.66Z" transform="translate(-114.73 -20)"/></g><path class="cls-10" d="M621.5,145.73l.42.34q1.81,1.49,3.56,3.11l.42.39q1.77,1.67,3.48,3.47l.29.3q1.82,1.94,3.54,4l0,0q1.76,2.13,3.42,4.37h0c1,1.37,2,2.78,2.92,4.21.59.89,1.14,1.8,1.69,2.7.46.75.94,1.5,1.39,2.26.21.36.41.73.62,1.1.73,1.29,1.44,2.59,2.11,3.91l.22.43q1.21,2.41,2.29,4.86l.11.25c4.46,10.26,7.05,21,7,30.93l18.75-10.9c0-8.8-2-18.24-5.61-27.41l0,0q-.4-1-.82-2c-.2-.49-.42-1-.63-1.47l-.11-.25-.12-.28q-.45-1-.92-2t-1.07-2.21l-.18-.34-.22-.43c-.3-.59-.59-1.17-.91-1.75s-.81-1.44-1.21-2.16c-.21-.36-.4-.73-.61-1.09l-.24-.43c-.37-.62-.77-1.22-1.15-1.84-.56-.9-1.11-1.81-1.69-2.69l-.27-.43q-1.29-1.92-2.65-3.78h0q-.92-1.24-1.86-2.45-.77-1-1.56-1.93l0,0,0,0q-.8-1-1.62-1.9t-1.63-1.81l-.27-.28-.29-.31c-.38-.4-.76-.81-1.15-1.21q-.87-.89-1.77-1.75l-.55-.52-.42-.39-.87-.81q-.92-.83-1.87-1.63l-.83-.68-.42-.34-.62-.5q-.91-.72-1.84-1.4c-.45-.33-.9-.64-1.35-1l-.24-.17-.23-.16q-.89-.61-1.78-1.18t-1.77-1.09l-.41-.24L453,25.75,451.62,25q-.86-.47-1.72-.89l-1.1-.52-.27-.13-.33-.15q-.84-.38-1.68-.71T444.84,22l-.29-.09-.26-.08-1.14-.37q-.87-.26-1.73-.48l-.82-.18-.36-.08-.53-.12q-.93-.18-1.84-.3c-.37-.05-.74-.08-1.11-.11l-.39,0-.37,0q-1-.07-2-.06c-.29,0-.56,0-.85,0l-.65,0-.68,0a23,23,0,0,0-2.42.35h0c-.18,0-.34.1-.51.14a21.32,21.32,0,0,0-2.37.65l-.26.11-.38.15a20.13,20.13,0,0,0-2.75,1.31l-18.75,10.9a20.1,20.1,0,0,1,2.75-1.31l.38-.15a21.2,21.2,0,0,1,2.64-.76c.17,0,.34-.11.51-.14a23.28,23.28,0,0,1,3.14-.39l.65,0a26.57,26.57,0,0,1,3.19.06l.39,0a31.1,31.1,0,0,1,3.47.53l.36.08a36.86,36.86,0,0,1,3.69,1l.26.08q2,.67,4,1.59l.27.13c1.37.63,2.75,1.35,4.15,2.16L613.26,140c1.42.82,2.82,1.71,4.2,2.67l.24.17Q619.63,144.22,621.5,145.73Z" transform="translate(-114.73 -20)"/><path class="cls-11" d="M673.79,199.65q0-1-.09-2t-.16-2q-.1-1-.23-2.05t-.3-2.11q-.17-1.06-.37-2.12t-.44-2.19q-.24-1.1-.51-2.2t-.58-2.23q-.31-1.11-.65-2.22t-.7-2.17q-.36-1.07-.75-2.14t-.77-2.05L649.48,185q.4,1,.77,2.05t.75,2.14q.36,1.08.7,2.17t.65,2.22q.31,1.11.58,2.23t.51,2.2q.24,1.1.44,2.19t.37,2.12q.17,1.06.3,2.11t.23,2.05q.1,1,.16,2t.09,2q0,1,0,1.89l-1.22,429.62c0,1.59-.08,3.12-.22,4.6,0,.13,0,.26,0,.4q-.2,2-.57,3.91l-.1.5q-.38,1.82-.9,3.48c-.07.21-.14.41-.2.62a30.83,30.83,0,0,1-1.17,3c0,.1-.09.22-.13.32a26.41,26.41,0,0,1-1.69,3.05c-.08.13-.18.24-.27.37a23.21,23.21,0,0,1-1.62,2.14c-.21.25-.43.48-.65.71a21.1,21.1,0,0,1-1.57,1.52c-.23.2-.45.4-.68.59a20.1,20.1,0,0,1-2.43,1.69l18.75-10.9a20.09,20.09,0,0,0,2.43-1.69c.23-.19.45-.39.68-.59a21.13,21.13,0,0,0,1.57-1.52c.22-.23.44-.46.65-.71a23.14,23.14,0,0,0,1.62-2.14c.09-.13.18-.24.27-.37l.06-.08a26.38,26.38,0,0,0,1.58-2.87l0-.1c0-.1.09-.22.14-.32.29-.64.57-1.28.83-2,.12-.33.23-.69.34-1s.14-.41.21-.62.13-.36.18-.56q.31-1,.56-2.14c.06-.26.1-.52.16-.79l.1-.5c0-.26.11-.5.15-.76q.17-1,.3-2c0-.37.08-.76.12-1.14,0-.13,0-.26,0-.4s0-.32,0-.48q.08-1,.12-2t0-2v-.12l1.22-429.62Q673.82,200.6,673.79,199.65Z" transform="translate(-114.73 -20)"/><path class="cls-12" d="M613.26,140c23.15,13.37,41.88,45.79,41.81,72.41l-1.22,429.62c-.08,26.61-18.93,37.35-42.08,24L432.71,562.66c-23.15-13.37-41.88-45.81-41.81-72.41l1.22-429.62C392.2,34,411,23.28,434.2,36.65Z" transform="translate(-114.73 -20)"/><path class="cls-13" d="M547.23,143.21a11.17,11.17,0,0,1,5.06,8.77c0,3.24-2.29,4.54-5.1,2.92L501,128.25a11.17,11.17,0,0,1-5.06-8.79c0-3.22,2.29-4.52,5.1-2.9Z" transform="translate(-114.73 -20)"/><path class="cls-14" d="M522.94,552.5c7.56,4.36,13.67,15,13.65,23.64s-6.18,12.19-13.74,7.83-13.67-15-13.65-23.64S515.38,548.13,522.94,552.5Z" transform="translate(-114.73 -20)"/><path class="cls-15" d="M636.68,232.69a9.25,9.25,0,0,1,4.2,7.27l-1,359c0,2.67-1.9,3.75-4.23,2.41L410.34,471.28a9.25,9.25,0,0,1-4.2-7.27l1-359c0-2.67,1.9-3.75,4.23-2.41Z" transform="translate(-114.73 -20)"/><path class="cls-15" d="M664.89,357.23h0a2.66,2.66,0,0,1-2.66-2.66V274.75a2.66,2.66,0,0,1,2.66-2.66h0a2.66,2.66,0,0,1,2.66,2.66v79.82A2.66,2.66,0,0,1,664.89,357.23Z" transform="translate(-114.73 -20)"/><path class="cls-15" d="M664.89,456.56h0a2.66,2.66,0,0,1-2.66-2.66V374.08a2.66,2.66,0,0,1,2.66-2.66h0a2.66,2.66,0,0,1,2.66,2.66V453.9A2.66,2.66,0,0,1,664.89,456.56Z" transform="translate(-114.73 -20)"/><path class="cls-16" d="M664.89,578.62h0a2.66,2.66,0,0,1-2.66-2.66V534.61a2.66,2.66,0,0,1,2.66-2.66h0a2.66,2.66,0,0,1,2.66,2.66V576A2.66,2.66,0,0,1,664.89,578.62Z" transform="translate(-114.73 -20)"/><path class="cls-17" d="M521.4,257.82c11.53,6.65,20.86,22.72,21,36,0,.11,0,.22,0,.33-.48.19-9.68,3.86-21.36-2.66l-.41-.23c-9.14-5.28-16.62-15.74-19.29-19.78-.68-1-1-1.61-1-1.65C500.31,256.49,509.77,251.1,521.4,257.82Z" transform="translate(-114.73 -20)"/><path class="cls-18" d="M616.24,373.62a10.58,10.58,0,0,1,4.81,8.31L621,402.17c0,3.06-2.17,4.3-4.84,2.76L431,298a10.59,10.59,0,0,1-4.81-8.33l.06-20.24c0-3,2.17-4.28,4.84-2.74Z" transform="translate(-114.73 -20)"/><path class="cls-19" d="M553,253.17a64.06,64.06,0,0,1,2.29,10.75,51.22,51.22,0,0,1,.38,6.28c0,.63,0,1.24,0,1.84,0,.09,0,.19,0,.28q0,.86-.12,1.69l0,.32c-.06.55-.12,1.1-.2,1.63-.11.72-.2,1.24-.3,1.74s-.25,1.16-.38,1.65l-.06.25q-.19.72-.41,1.41l-.08.25c-.15.46-.31.92-.49,1.36s-.4,1-.59,1.37c-.27.57-.47,1-.68,1.35l-.12.22q-.32.57-.67,1.11l-.11.17c-.25.37-.5.73-.76,1.08s-.55.69-.83,1l-.12.14q-.41.46-.85.88l-.17.16q-.44.41-.9.79l-.14.11q-.46.37-.94.7c-.4.28-.74.49-1.09.69l-.19.11c-.34.19-.68.37-1,.53l-.22.1c-.36.16-.73.32-1.1.46l-.7.23c-.12-13.29-9.46-29.35-21-36s-21.1-1.33-21.13,12c0,0,.34.56,1,1.51-.27-.38-.55-.76-.82-1.15-.52-.75-.87-1.28-1.22-1.81l-.19-.29q-.55-.85-1.09-1.72l-.23-.37q-.54-.89-1.07-1.79c-.37-.65-.71-1.25-1-1.85l-.19-.35q-.48-.9-.95-1.81l-.17-.33q-.44-.87-.86-1.76c-.37-.79-.66-1.42-.93-2l-.17-.39q-.41-.94-.79-1.88c-.33-.81-.55-1.41-.78-2l-.11-.3q-.35-.94-.67-1.89l-.13-.38q-.64-1.94-1.17-3.88l-.1-.38q-.25-.94-.47-1.88l-.08-.34q-.2-.89-.38-1.79c-.17-.84-.28-1.47-.38-2.09l-.06-.4q-.15-.94-.26-1.88c-.09-.8-.15-1.38-.2-2l0-.32q-.07-.91-.11-1.82c0-.13,0-.26,0-.39,0-.62,0-1.24,0-1.85a40.82,40.82,0,0,1,.42-5.82,28.75,28.75,0,0,1,2.34-8.08q.33-.7.7-1.36c5.62-10.09,17.5-12.43,31.23-4.51,12.32,7.11,23.11,20.76,29.2,35.44.4,1,.79,1.93,1.15,2.91Q552.39,251,553,253.17Zm-31.16,1c7.1,4.1,12.86.8,12.88-7.34s-5.7-18.07-12.8-22.17-12.86-.82-12.88,7.34,5.72,18.08,12.8,22.17" transform="translate(-114.73 -20)"/><path class="cls-20" d="M553,253.17a64.06,64.06,0,0,1,2.29,10.75,51.22,51.22,0,0,1,.38,6.28c0,.63,0,1.24,0,1.84,0,.09,0,.19,0,.28q0,.86-.12,1.69l0,.32c-.06.55-.12,1.1-.2,1.63-.11.72-.2,1.24-.3,1.74s-.25,1.16-.38,1.65l-.06.25q-.19.72-.41,1.41l-.08.25c-.15.46-.31.92-.49,1.36s-.4,1-.59,1.37c-.27.57-.47,1-.68,1.35l-.12.22q-.32.57-.67,1.11l-.11.17c-.25.37-.5.73-.76,1.08s-.55.69-.83,1l-.12.14q-.41.46-.85.88l-.17.16q-.44.41-.9.79l-.14.11q-.46.37-.94.7c-.4.28-.74.49-1.09.69l-.19.11c-.34.19-.68.37-1,.53l-.22.1c-.36.16-.73.32-1.1.46l-.7.23c-.12-13.29-9.46-29.35-21-36s-21.1-1.33-21.13,12c0,0,.34.56,1,1.51-.27-.38-.55-.76-.82-1.15-.52-.75-.87-1.28-1.22-1.81l-.19-.29q-.55-.85-1.09-1.72l-.23-.37q-.54-.89-1.07-1.79c-.37-.65-.71-1.25-1-1.85l-.19-.35q-.48-.9-.95-1.81l-.17-.33q-.44-.87-.86-1.76c-.37-.79-.66-1.42-.93-2l-.17-.39q-.41-.94-.79-1.88c-.33-.81-.55-1.41-.78-2l-.11-.3q-.35-.94-.67-1.89l-.13-.38q-.64-1.94-1.17-3.88l-.1-.38q-.25-.94-.47-1.88l-.08-.34q-.2-.89-.38-1.79c-.17-.84-.28-1.47-.38-2.09l-.06-.4q-.15-.94-.26-1.88c-.09-.8-.15-1.38-.2-2l0-.32q-.07-.91-.11-1.82c0-.13,0-.26,0-.39,0-.62,0-1.24,0-1.85a40.82,40.82,0,0,1,.42-5.82,28.75,28.75,0,0,1,2.34-8.08q.33-.7.7-1.36c5.62-10.09,17.5-12.43,31.23-4.51,12.32,7.11,23.11,20.76,29.2,35.44.4,1,.79,1.93,1.15,2.91Q552.39,251,553,253.17Zm-31.16,1c7.1,4.1,12.86.8,12.88-7.34s-5.7-18.07-12.8-22.17-12.86-.82-12.88,7.34,5.72,18.08,12.8,22.17" transform="translate(-114.73 -20)"/><path class="cls-17" d="M522,224.65c7.1,4.1,12.82,14,12.8,22.17s-5.78,11.44-12.88,7.34-12.82-14-12.8-22.17S514.89,220.56,522,224.65Z" transform="translate(-114.73 -20)"/><path class="cls-18" d="M616.12,417.67a10.59,10.59,0,0,1,4.81,8.33l-.06,20.24c0,3.06-2.17,4.28-4.84,2.74L430.88,342.09a10.55,10.55,0,0,1-4.81-8.31l.06-20.24c0-3.06,2.17-4.3,4.84-2.76Z" transform="translate(-114.73 -20)"/><path class="cls-21" d="M543.84,450.48c6.32,3.65,11.42,12.5,11.4,19.74v4.65c0,7.26-5.15,10.18-11.47,6.54l-59.88-34.57c-6.32-3.65-11.43-12.49-11.41-19.75v-4.65c0-7.24,5.17-10.18,11.49-6.53Z" transform="translate(-114.73 -20)"/><ellipse class="cls-22" cx="299.97" cy="711.57" rx="68.04" ry="40.43"/><path class="cls-23" d="M483.78,456.81s4.06-2.71,5.08-4.06,2.37-9.14,1-9.48-2.37,5.08-2.37,5.08-.34-14.22-2-16.26-7.11,8.13-7.45,9.82-1.69,8.81-1.69,8.81S478.36,456.81,483.78,456.81Z" transform="translate(-114.73 -20)"/><path class="cls-16" d="M380.26,497.65s-10.62,10.64-3.17,23.51,58.25-19,63.67-23.71,41-36.58,43-40.64-2.37-8.13-7.79-7.45-27.09,23.71-44,34.54C432,483.91,391.56,493.1,380.26,497.65Z" transform="translate(-114.73 -20)"/><path class="cls-16" d="M386.49,722.86s-.87,6.41.29,9c1.17,2.33,5.83,4.08,9,1.75a92.79,92.79,0,0,0,8.74-8.16s9.33-5,10.2-7.58-2.33-5-5-4.37-10.2,5.25-13.7,5.25S387.65,719.65,386.49,722.86Z" transform="translate(-114.73 -20)"/><path class="cls-24" d="M376.88,586.38S385,721,386.05,724.89s11.6,6.14,13.56-.06c1.24-3.93,4.32-128.5,4.32-128.5Z" transform="translate(-114.73 -20)"/><path class="cls-16" d="M413.46,730.87a2.09,2.09,0,0,0-.72,1.57c0,1.85.07,6,1.11,7.58A7.84,7.84,0,0,0,424,741.92c3.77-2.05,15.39-10.73,17.75-12.66a6.94,6.94,0,0,0,2.35-3.71,2.11,2.11,0,0,0-1.19-2.44c-1.65-.73-4.46-1.65-7-.8-3.85,1.29-8.69,5.46-13.93,5.24C418,727.37,414.82,729.7,413.46,730.87Z" transform="translate(-114.73 -20)"/><path class="cls-25" d="M431.46,587.83c-.59-5.59-7.28-7.41-13.45-5.51-11.77-.63-30-.13-30.62,9-.95,13.52,5.39,23.16,11.51,29.73,4.52,4.85,7.52,14.12,8.79,18.64,1.07,35.7,3.44,86,4.91,90.86,2.38,7.76,14.09,7.41,14.62-.15C429.59,704.87,431.46,587.83,431.46,587.83Z" transform="translate(-114.73 -20)"/><path class="cls-16" d="M431.49,592c-1.38,6.91-21.07,10.36-32.58,8.52s-23.91-7.49-23.5-20.84c0,0,2.19-31.91,1.31-37.6s-3.06-15.74-3.06-26.23,6.6-18.26,6.6-18.26,6.45-7.37,26.71-3.22c0,0,16.51,3.6,24.1,15.8,0,0,5.25,13.41,3.5,41.38S431.49,592,431.49,592Z" transform="translate(-114.73 -20)"/><path class="cls-26" d="M391.15,479.62s1.75,10.2,0,14.86c-.29,2.33,9.91,10.2,18.94,8.16,5.25-1.17,5-3.79,5-3.79s-4.37-7.29-3.79-14.28S397.27,478.17,391.15,479.62Z" transform="translate(-114.73 -20)"/><circle class="cls-23" cx="286.47" cy="439.08" r="24.04"/><path class="cls-23" d="M425.25,460.68s.29,24.08-5,28.95-13.3-4.55-26.18-7.57c-12.88-3.31,10.44-28.35,10.44-28.35Z" transform="translate(-114.73 -20)"/><path class="cls-23" d="M478.61,496.27s-2.29-9.4-1.52-10.16,3.81,3.3,3.81,3.3,1.52-9.65,2.79-10.67,6.35,4.06,7.11,6.86-3,14-4.57,14.22S479.38,500.84,478.61,496.27Z" transform="translate(-114.73 -20)"/><path class="cls-16" d="M424,507.45s-10.67,5.08-6.1,18.29S456.51,544,460.58,540s21.84-24.89,26.92-40.64c0,0-2-6.1-10.16-3.56,0,0-19.3,24.38-22.35,26.92S429.08,506.43,424,507.45Z" transform="translate(-114.73 -20)"/><path class="cls-27" d="M380.63,440.76a30.7,30.7,0,0,1,20.4-10c12.9-.83,19.15,3.33,24.14,2.91s9.57,3.75,7.91,10-5.41,12.49-13.74,12.49-10.41-1.25-10.41-1.25,6.66,2.91,7.49,8.74a129.53,129.53,0,0,1,.83,14.57h-2.08s-1.67-9.57-5-9.57-3.33,10.41-.42,12.07l2.91,1.67s-5.59,10.36-8.62,10.8-13-7.05-13-7.05-16.65-7.91-18.31-20.81S380.63,440.76,380.63,440.76Z" transform="translate(-114.73 -20)"/><ellipse class="cls-28" cx="85.45" cy="644.58" rx="68.04" ry="40.43"/><path class="cls-29" d="M165.71,554s4.57,29,8.38,45c0,0,.76,26.67,1.52,35.81s3,29,3,29a5.47,5.47,0,0,0,5.71.76s3.81-56.77,4.57-65.91,3.43-50.29,3.43-50.29S183.62,540.28,165.71,554Z" transform="translate(-114.73 -20)"/><path class="cls-29" d="M194.29,542.57s4.57,29,8.38,45c0,0,.76,26.67,1.52,35.81s3,29,3,29a5.47,5.47,0,0,0,5.71.76s3.81-56.77,4.57-65.91,1.14-49.91,1.14-49.91S212.2,528.85,194.29,542.57Z" transform="translate(-114.73 -20)"/><path class="cls-16" d="M171.43,514.88s-10.79,11.81-4.57,51.82c.38,5.71,4.19,20.45,4.19,20.45s14.1,2.29,30.86-4.19S219.05,573,219.05,573s.76-50.16-3-63.12S171.43,514.88,171.43,514.88Z" transform="translate(-114.73 -20)"/><path class="cls-30" d="M213.15,650.39a5.88,5.88,0,0,0,2.67,5.14c3,2.29,8.76,6.48,9.72,9,0,1.9-7.24-.19-10.48-1.9s-6.29-5.72-6.29-5.72l.19,1.71a3.23,3.23,0,0,1-2.1-1c-1-1,.19-6.86.19-6.86Z" transform="translate(-114.73 -20)"/><path class="cls-30" d="M184.57,663.53a5.88,5.88,0,0,0,2.67,5.14c3,2.29,8.76,6.48,9.72,9,0,1.9-7.24-.19-10.48-1.9s-6.29-5.71-6.29-5.71l.19,1.71a3.23,3.23,0,0,1-2.1-1c-1-1,.19-6.86.19-6.86Z" transform="translate(-114.73 -20)"/><path class="cls-31" d="M212.51,439.17s9.89,1.56,16.3,23.05c3.83,14.21,9.4,15.49,15.83,16.78s33.41,0,35.55,0,4.71,4.71,1.71,8.14S241.64,494,234.36,494s-24-13.71-30.84-24.84S203.52,438.31,212.51,439.17Z" transform="translate(-114.73 -20)"/><path class="cls-16" d="M207.8,385.63s9.85,12.64,7.71,26.77-14.56,13.49-16.7,21.2,6,18.85-5.14,26.13-16.28,5.57-19.27,21S160.69,504.27,142.27,506,111,485.42,115.71,469.15s21-11.14,24.41-24.41,2.14-23.77,13.71-28.91,7.28-24.63,18.85-30.62C184.49,379.07,199.24,375.77,207.8,385.63Z" transform="translate(-114.73 -20)"/><path class="cls-32" d="M182.15,434.87S161,450,158.87,455s-5.05,20.71,1.82,28.39c11.91,13.31,4.74,36.17,6.31,42.9s17.74,7.56,29,5.39,21.61-7.91,21.19-21,3-31,3.75-36.92-.06-20.69-2.8-30.62c-.58-2.09-7.62-4.29-7.62-4.29S203,434,182.15,434.87Z" transform="translate(-114.73 -20)"/><path class="cls-26" d="M200.57,432a2.13,2.13,0,0,0,0,.68c.23,1.55,1,5.52,1.15,7.18s-1.67,4.34-6,4.26-11.58-1.88-14-7a118.61,118.61,0,0,0-.71-15.1Z" transform="translate(-114.73 -20)"/><path class="cls-23" d="M212.47,403.47c-2.3-12.28-12-19.25-23-16.68,0,0-11.93,1.19-17.23,11.67s2.48,19.29,7.47,24.84c2.1,2.28,3.69,4,4.69,5.16.36.42.72.85,1.1,1.24l.11.12h0A24.93,24.93,0,0,0,195.79,436c4.8,1.43,10.47.61,13.54-2.66S214.77,415.75,212.47,403.47Z" transform="translate(-114.73 -20)"/><path class="cls-16" d="M214.44,411.75s-8.78.86-13.92-5.14-12.42,0-18.42-5.14c0,0,2.57,6.42,0,12.85s-3.43,16.28-3.43,16.28L167.54,413V397.62l14.13-13.28,18.85-.86,9,8.57S215.3,405.33,214.44,411.75Z" transform="translate(-114.73 -20)"/><path class="cls-33" d="M165.54,486.58,192.16,495,217,488c-.36,1.09-6.93,21.15-21.15,24.8-10.22,2.62-22.3-6.42-28.3-11.72a35.91,35.91,0,0,0-2.58-10.85Z" transform="translate(-114.73 -20)"/><path class="cls-34" d="M166.72,461.46s-14.13-3.43-8.14,15.85,26.13,33.41,33.41,32.55,36.84-32.12,36.84-36a5.56,5.56,0,0,0-6.85-5.57c-3.43.86-26.13,25.27-28.27,24.41S178.28,469.6,166.72,461.46Z" transform="translate(-114.73 -20)"/><path class="cls-23" d="M224.8,475.29a4.24,4.24,0,0,1-2.83-5.43c1.18-4.25,9-7.55,10.14-7.78s12.74,2.12,13.21,3.54-2.12,2.12-5,1.42a47.19,47.19,0,0,0-7.08-.94s3.07,3.3,2.83,4.72a8.93,8.93,0,0,1-4.25,5.43c-2.36,1.18-5.19-1.42-5.19-1.42Z" transform="translate(-114.73 -20)"/><path class="cls-23" d="M276.63,479.63s9.34-7.95,9.86-6.53-3.19,5.37-3.19,5.37,12.5-4.79,12.65-3.16-6.6,6.72-8.38,7.92-8.15,2.93-8.15,2.93S275.92,481.47,276.63,479.63Z" transform="translate(-114.73 -20)"/><g class="cls-35"><path class="cls-4" d="M234.25,408.66a12.34,12.34,0,0,0-5.56,9.67l.37,131.32c0,8.37,6,11.79,13.22,7.61l78.22-45.16a12.34,12.34,0,0,0,5.56-9.67l-.37-131.32c0-8.37-6-11.79-13.22-7.61Z" transform="translate(-114.73 -20)"/></g><path class="cls-17" d="M246.25,456.25a3.65,3.65,0,0,0-1.66,2.86l0,7c0,1.06.75,1.48,1.67,1l63.78-36.82a3.65,3.65,0,0,0,1.66-2.87l0-7c0-1-.75-1.47-1.67-.94Z" transform="translate(-114.73 -20)"/><path class="cls-17" d="M246.29,471.43a3.65,3.65,0,0,0-1.66,2.87l0,7c0,1.06.75,1.47,1.67.94l63.78-36.82a3.64,3.64,0,0,0,1.66-2.86l0-7c0-1.06-.75-1.48-1.67-1Z" transform="translate(-114.73 -20)"/><path class="cls-17" d="M271.19,482.73a8.66,8.66,0,0,0-3.93,6.8v1.6c0,2.5,1.77,3.51,4,2.25l20.63-11.91a8.66,8.66,0,0,0,3.93-6.8v-1.6c0-2.49-1.78-3.51-4-2.25Z" transform="translate(-114.73 -20)"/></g></g></svg>