<svg xmlns="http://www.w3.org/2000/svg" viewBox="0 0 686.28 742.39"><defs><style>.cls-1{isolation:isolate;}.cls-2{fill:#bcbcbc;}.cls-3{fill:#d3d3d3;}.cls-4{fill:#0b4656;}.cls-5{fill:#063444;}.cls-6{fill:#4de4e8;}.cls-7{fill:#0fb1b5;}.cls-8{fill:#1cc6c6;}.cls-9{fill:#ffdc79;}.cls-10{fill:#fe5c99;}.cls-11,.cls-54,.cls-57{fill:#fff;}.cls-12{fill:#eaeaea;}.cls-13{opacity:0.6;}.cls-14{opacity:0.4;}.cls-15{fill:#076d6d;}.cls-15,.cls-19,.cls-24,.cls-39{opacity:0.5;}.cls-16,.cls-44{fill:#ededed;}.cls-17{fill:#190b05;}.cls-18{fill:#442312;}.cls-19,.cls-20,.cls-21{fill:#defffe;}.cls-20{opacity:0.75;}.cls-22{fill:#f4d0ae;}.cls-23{fill:#ffe1bd;}.cls-24,.cls-26{fill:#e9c69e;}.cls-25{fill:#232323;}.cls-27,.cls-43{fill:#efefef;}.cls-28{fill:#3a3a3a;}.cls-29{fill:#2d2d2d;}.cls-30{fill:#353535;}.cls-31{fill:#ccc;}.cls-32{fill:#713e23;}.cls-33{fill:none;stroke:#381e1e;stroke-miterlimit:10;stroke-width:0.7px;}.cls-34{fill:#474747;}.cls-35{fill:#141414;}.cls-36{fill:#7f391b;}.cls-37{fill:#934b32;}.cls-38{fill:#682c17;}.cls-39{fill:#595959;}.cls-40{fill:#845424;}.cls-41{fill:#e2e2e2;}.cls-41,.cls-43{opacity:0.39;}.cls-42{fill:#edcdab;}.cls-44{mix-blend-mode:color-burn;}.cls-45{fill:#ffd05a;}.cls-46{fill:#73aae0;}.cls-47{fill:#acd3ff;}.cls-48{fill:#779a0a;}.cls-49,.cls-50{fill:#c3d600;}.cls-50,.cls-53{opacity:0.3;}.cls-51{fill:#8ba6fc;}.cls-52,.cls-53{fill:#c9d4fe;}.cls-54{opacity:0.1;}.cls-55{fill:#00e0c1;}.cls-56{fill:#02f5d0;}.cls-57{opacity:0.2;}.cls-58{fill:#efc356;}.cls-59{fill:#e83d83;}</style></defs><title>unbk-isometric</title><g class="cls-1"><g id="Layer_2" data-name="Layer 2"><path class="cls-2" d="M458.65,132.14v.9l35.09,21.08v-.9c0-2.67-2.17-6.14-4.84-7.75l-2.34-1.41c-3.47-2.09-6-6.92-5-9.69h0a4.59,4.59,0,0,0,.16-1.18c0-3-2.36-6.82-5.31-8.68a4.26,4.26,0,0,0-2.94-.76c-2.75.49-3,2.27-2.55,4.22h0c.95,3.91-1.56,5.72-5,3.63l-2.34-1.41C460.82,128.6,458.65,129.47,458.65,132.14Zm14.68-4c0-1.58,1.28-2.09,2.86-1.14a6.1,6.1,0,0,1,2.86,4.58c0,1.57-1.28,2.08-2.86,1.13A6.1,6.1,0,0,1,473.34,128.17Z" transform="translate(-67.72 -16.9)"/><path class="cls-3" d="M433.52,129.92l85.35,51.28V179c0-6.5-5.27-14.95-11.78-18.85L445.3,123c-6.5-3.91-11.78-1.8-11.78,4.7Z" transform="translate(-67.72 -16.9)"/><path class="cls-4" d="M375.58,99l5.26-2.15,0,0a4.5,4.5,0,0,1,4.07.33L576.8,215.09A12.83,12.83,0,0,1,582.92,226V538.71a5.29,5.29,0,0,1-2.73,4.66h0a5.43,5.43,0,0,1-1.18.48l-4,1.65-1.6-3.09L382.93,425.36a10.51,10.51,0,0,1-5-9V101.08a4.53,4.53,0,0,1,.31-1.59l-2,.57Z" transform="translate(-67.72 -16.9)"/><path class="cls-5" d="M372.94,103.1V418.43a10.51,10.51,0,0,0,5,9L569.79,545.29a5.34,5.34,0,0,0,8.14-4.55V228a12.83,12.83,0,0,0-6.11-10.93L379.95,99.19A4.6,4.6,0,0,0,372.94,103.1Z" transform="translate(-67.72 -16.9)"/><path class="cls-6" d="M379.95,111V416.68a3.94,3.94,0,0,0,1.87,3.35L568.2,534.57a1.79,1.79,0,0,0,2.73-1.53V227.88A5.72,5.72,0,0,0,568.2,223L383.13,109.26A2.09,2.09,0,0,0,379.95,111Z" transform="translate(-67.72 -16.9)"/><path class="cls-7" d="M485.75,191.72v114a1.47,1.47,0,0,0,.7,1.25L556,349.69a.67.67,0,0,0,1-.57V235.3a2.13,2.13,0,0,0-1-1.82l-69-42.43A.78.78,0,0,0,485.75,191.72Z" transform="translate(-67.72 -16.9)"/><path class="cls-7" d="M485.75,327.23v10.93a1.47,1.47,0,0,0,.7,1.25L556,382.13a.67.67,0,0,0,1-.57V370.81a2.13,2.13,0,0,0-1-1.82l-69-42.43A.78.78,0,0,0,485.75,327.23Z" transform="translate(-67.72 -16.9)"/><path class="cls-8" d="M493,291.26V300a1.17,1.17,0,0,0,.56,1l55.31,34a.53.53,0,0,0,.81-.45v-8.55a1.7,1.7,0,0,0-.81-1.45L494,290.73A.62.62,0,0,0,493,291.26Z" transform="translate(-67.72 -16.9)"/><path class="cls-7" d="M485.75,349.9v10.93a1.47,1.47,0,0,0,.7,1.25L556,404.8a.67.67,0,0,0,1-.57V393.48a2.13,2.13,0,0,0-1-1.82l-69-42.43A.78.78,0,0,0,485.75,349.9Z" transform="translate(-67.72 -16.9)"/><path class="cls-7" d="M501.56,382.27V393.2a1.47,1.47,0,0,0,.7,1.25l53.71,33a.67.67,0,0,0,1-.57V416.14a2.13,2.13,0,0,0-1-1.82l-53.22-32.72A.78.78,0,0,0,501.56,382.27Z" transform="translate(-67.72 -16.9)"/><path class="cls-7" d="M409.88,313.11V324a1.47,1.47,0,0,0,.7,1.25l53.71,33a.67.67,0,0,0,1-.57V347a2.13,2.13,0,0,0-1-1.82l-53.22-32.72A.78.78,0,0,0,409.88,313.11Z" transform="translate(-67.72 -16.9)"/><path class="cls-7" d="M409.88,345.31v10.93a1.47,1.47,0,0,0,.7,1.25l53.71,33a.67.67,0,0,0,1-.57V379.18a2.13,2.13,0,0,0-1-1.82l-53.22-32.72A.78.78,0,0,0,409.88,345.31Z" transform="translate(-67.72 -16.9)"/><path class="cls-7" d="M485.75,395.23v10.93a1.47,1.47,0,0,0,.7,1.25L556,450.13a.67.67,0,0,0,1-.57V438.81a2.13,2.13,0,0,0-1-1.82l-69-42.43A.78.78,0,0,0,485.75,395.23Z" transform="translate(-67.72 -16.9)"/><path class="cls-7" d="M534.53,464.14V480a2.13,2.13,0,0,0,1,1.81l14.74,9a1,1,0,0,0,1.48-.83V474.34a3.09,3.09,0,0,0-1.47-2.64l-14-8.52A1.13,1.13,0,0,0,534.53,464.14Z" transform="translate(-67.72 -16.9)"/><path class="cls-9" d="M510.14,449.24v15.84a2.13,2.13,0,0,0,1,1.81l14.74,9a1,1,0,0,0,1.48-.83V459.43a3.09,3.09,0,0,0-1.47-2.64l-14-8.52A1.13,1.13,0,0,0,510.14,449.24Z" transform="translate(-67.72 -16.9)"/><path class="cls-10" d="M485.75,434.33v15.84a2.13,2.13,0,0,0,1,1.81l14.74,9a1,1,0,0,0,1.48-.83V444.53a3.09,3.09,0,0,0-1.47-2.64l-14-8.52A1.13,1.13,0,0,0,485.75,434.33Z" transform="translate(-67.72 -16.9)"/><path class="cls-7" d="M422.08,153.6v4.16a1.47,1.47,0,0,0,.7,1.25l46.56,28.63a.67.67,0,0,0,1-.57v-4a2.13,2.13,0,0,0-1-1.82l-46.07-28.33A.78.78,0,0,0,422.08,153.6Z" transform="translate(-67.72 -16.9)"/><path class="cls-7" d="M439.18,176.16v4.16a1.47,1.47,0,0,0,.7,1.25l29.46,18.22a.67.67,0,0,0,1-.57v-4a2.13,2.13,0,0,0-1-1.82l-29-17.92A.78.78,0,0,0,439.18,176.16Z" transform="translate(-67.72 -16.9)"/><path class="cls-7" d="M399.12,163.8V168a1.47,1.47,0,0,0,.7,1.25l69.52,42.73a.67.67,0,0,0,1-.57v-4a2.13,2.13,0,0,0-1-1.82l-69-42.43A.78.78,0,0,0,399.12,163.8Z" transform="translate(-67.72 -16.9)"/><path class="cls-7" d="M405.31,179.65v4.16a1.47,1.47,0,0,0,.7,1.25l63.32,39a.67.67,0,0,0,1-.57v-4a2.13,2.13,0,0,0-1-1.82L406.5,179A.78.78,0,0,0,405.31,179.65Z" transform="translate(-67.72 -16.9)"/><path class="cls-7" d="M432.94,208.86V213a1.47,1.47,0,0,0,.7,1.25l35.7,22a.67.67,0,0,0,1-.57v-4a2.13,2.13,0,0,0-1-1.82l-35.21-21.67A.78.78,0,0,0,432.94,208.86Z" transform="translate(-67.72 -16.9)"/><path class="cls-7" d="M399.12,200.25v4.16a1.47,1.47,0,0,0,.7,1.25l69.52,42.73a.67.67,0,0,0,1-.57v-4a2.13,2.13,0,0,0-1-1.82l-69-42.43A.78.78,0,0,0,399.12,200.25Z" transform="translate(-67.72 -16.9)"/><path class="cls-7" d="M399.12,212.4v4.16a1.47,1.47,0,0,0,.7,1.25l69.52,42.73a.67.67,0,0,0,1-.57v-4a2.13,2.13,0,0,0-1-1.82l-69-42.43A.78.78,0,0,0,399.12,212.4Z" transform="translate(-67.72 -16.9)"/><path class="cls-7" d="M415.8,234.87V239a1.47,1.47,0,0,0,.7,1.25l52.84,32.41a.67.67,0,0,0,1-.57v-4a2.13,2.13,0,0,0-1-1.82L417,234.21A.78.78,0,0,0,415.8,234.87Z" transform="translate(-67.72 -16.9)"/><path class="cls-7" d="M399.12,236.71v4.16a1.47,1.47,0,0,0,.7,1.25l69.52,42.73a.67.67,0,0,0,1-.57v-4a2.13,2.13,0,0,0-1-1.82l-69-42.43A.78.78,0,0,0,399.12,236.71Z" transform="translate(-67.72 -16.9)"/><path class="cls-7" d="M399.12,248.86V253a1.47,1.47,0,0,0,.7,1.25L469.34,297a.67.67,0,0,0,1-.57v-4a2.13,2.13,0,0,0-1-1.82l-69-42.43A.78.78,0,0,0,399.12,248.86Z" transform="translate(-67.72 -16.9)"/><path class="cls-11" d="M509.66,241.8c0,6.46,5.24,19.69,11.71,23.73s11.71-2.63,11.71-9.1-5.24-15-11.71-19S509.66,235.33,509.66,241.8Z" transform="translate(-67.72 -16.9)"/><path class="cls-11" d="M493,278v1.9l56.67,35.41v-1.9c0-15.65-12.69-36.26-28.34-46-7.83-4.89-14.91-6.15-20-4.22S493,270.21,493,278Z" transform="translate(-67.72 -16.9)"/><path class="cls-11" d="M427.68,132.72,513,184v-2.19c0-6.5-5.27-14.95-11.78-18.85l-61.8-37.13c-6.5-3.91-11.78-1.8-11.78,4.7Z" transform="translate(-67.72 -16.9)"/><path class="cls-12" d="M452.81,134.95v.9l35.09,21.08V156c0-2.67-2.17-6.14-4.84-7.75l-2.34-1.41c-3.47-2.09-6-6.92-5-9.69h0a4.59,4.59,0,0,0,.16-1.18c0-3-2.36-6.82-5.31-8.68a4.26,4.26,0,0,0-2.94-.76c-2.75.49-3,2.27-2.55,4.22h0c.95,3.91-1.56,5.72-5,3.63L457.65,133C455,131.41,452.81,132.27,452.81,134.95Zm14.68-4c0-1.58,1.28-2.09,2.86-1.14a6.1,6.1,0,0,1,2.86,4.58c0,1.57-1.28,2.08-2.86,1.13A6.1,6.1,0,0,1,467.5,131Z" transform="translate(-67.72 -16.9)"/><path class="cls-7" d="M399.12,187.94v4.16a1.47,1.47,0,0,0,.7,1.25l28.55,17.73a.67.67,0,0,0,1-.57v-4a2.13,2.13,0,0,0-1-1.82l-28.06-17.43A.78.78,0,0,0,399.12,187.94Z" transform="translate(-67.72 -16.9)"/><g class="cls-13"><path class="cls-2" d="M262.63,72.52v.63L286.9,87.73V87.1a7.15,7.15,0,0,0-3.35-5.36l-1.62-1c-2.4-1.44-4.14-4.78-3.48-6.7h0a3.18,3.18,0,0,0,.11-.82,8.09,8.09,0,0,0-3.67-6,3,3,0,0,0-2-.52c-1.9.34-2.07,1.57-1.77,2.92h0c.65,2.7-1.08,4-3.48,2.51l-1.62-1C264.13,70.07,262.63,70.67,262.63,72.52Zm10.16-2.75c0-1.09.88-1.45,2-.79a4.22,4.22,0,0,1,2,3.17c0,1.09-.88,1.44-2,.78A4.22,4.22,0,0,1,272.79,69.77Z" transform="translate(-67.72 -16.9)"/><path class="cls-3" d="M245.25,71l59,35.47v-1.51c0-4.5-3.65-10.34-8.15-13L253.39,66.22c-4.5-2.7-8.15-1.25-8.15,3.25Z" transform="translate(-67.72 -16.9)"/><path class="cls-4" d="M205.17,49.57l3.64-1.49v0a3.11,3.11,0,0,1,2.82.23l132.71,81.56a8.88,8.88,0,0,1,4.23,7.56V353.73a3.66,3.66,0,0,1-1.89,3.22h0a3.76,3.76,0,0,1-.82.33l-2.78,1.14L342,356.29l-131.73-81a7.27,7.27,0,0,1-3.46-6.19V51a3.13,3.13,0,0,1,.22-1.1l-1.4.4Z" transform="translate(-67.72 -16.9)"/><path class="cls-5" d="M203.35,52.44v218.1a7.27,7.27,0,0,0,3.46,6.19L339.5,358.28a3.7,3.7,0,0,0,5.63-3.15V138.85a8.88,8.88,0,0,0-4.23-7.56L208.19,49.73A3.18,3.18,0,0,0,203.35,52.44Z" transform="translate(-67.72 -16.9)"/><path class="cls-6" d="M208.19,57.93V269.32a2.72,2.72,0,0,0,1.3,2.32L338.4,350.87a1.24,1.24,0,0,0,1.89-1.06V138.74a4,4,0,0,0-1.89-3.37L210.4,56.7A1.45,1.45,0,0,0,208.19,57.93Z" transform="translate(-67.72 -16.9)"/><path class="cls-7" d="M281.37,113.73v78.85a1,1,0,0,0,.48.86L329.94,223a.46.46,0,0,0,.7-.39V143.87a1.48,1.48,0,0,0-.7-1.26L282.2,113.27A.54.54,0,0,0,281.37,113.73Z" transform="translate(-67.72 -16.9)"/><path class="cls-7" d="M281.37,207.46V215a1,1,0,0,0,.48.87l48.08,29.55a.46.46,0,0,0,.7-.39V237.6a1.48,1.48,0,0,0-.7-1.26L282.2,207A.54.54,0,0,0,281.37,207.46Z" transform="translate(-67.72 -16.9)"/><path class="cls-8" d="M286.41,182.58v6a.81.81,0,0,0,.38.69L325,212.79a.37.37,0,0,0,.56-.31v-5.92a1.17,1.17,0,0,0-.56-1l-38-23.35A.43.43,0,0,0,286.41,182.58Z" transform="translate(-67.72 -16.9)"/><path class="cls-7" d="M281.37,223.13v7.56a1,1,0,0,0,.48.86l48.08,29.55a.46.46,0,0,0,.7-.39v-7.44a1.48,1.48,0,0,0-.7-1.26L282.2,222.67A.54.54,0,0,0,281.37,223.13Z" transform="translate(-67.72 -16.9)"/><path class="cls-7" d="M292.31,245.53v7.56a1,1,0,0,0,.48.87l37.15,22.84a.46.46,0,0,0,.7-.39V269a1.48,1.48,0,0,0-.7-1.26l-36.81-22.63A.54.54,0,0,0,292.31,245.53Z" transform="translate(-67.72 -16.9)"/><path class="cls-7" d="M228.9,197.69v7.56a1,1,0,0,0,.48.86l37.15,22.84a.46.46,0,0,0,.7-.39v-7.44a1.48,1.48,0,0,0-.7-1.26l-36.81-22.63A.54.54,0,0,0,228.9,197.69Z" transform="translate(-67.72 -16.9)"/><path class="cls-7" d="M228.9,220v7.56a1,1,0,0,0,.48.87l37.15,22.84a.46.46,0,0,0,.7-.39v-7.44a1.48,1.48,0,0,0-.7-1.26L229.72,219.5A.54.54,0,0,0,228.9,220Z" transform="translate(-67.72 -16.9)"/><path class="cls-7" d="M281.37,254.49V262a1,1,0,0,0,.48.86l48.08,29.55a.46.46,0,0,0,.7-.39v-7.44a1.48,1.48,0,0,0-.7-1.26L282.2,254A.54.54,0,0,0,281.37,254.49Z" transform="translate(-67.72 -16.9)"/><path class="cls-7" d="M315.11,302.15v11a1.47,1.47,0,0,0,.7,1.25L326,320.56a.67.67,0,0,0,1-.57V309.2a2.14,2.14,0,0,0-1-1.82l-9.71-5.89A.78.78,0,0,0,315.11,302.15Z" transform="translate(-67.72 -16.9)"/><path class="cls-9" d="M298.24,291.84v11a1.47,1.47,0,0,0,.7,1.25l10.19,6.19a.67.67,0,0,0,1-.57V298.9a2.14,2.14,0,0,0-1-1.82l-9.71-5.89A.78.78,0,0,0,298.24,291.84Z" transform="translate(-67.72 -16.9)"/><path class="cls-10" d="M281.37,281.54v11a1.47,1.47,0,0,0,.7,1.25l10.19,6.19a.67.67,0,0,0,1-.57V288.59a2.14,2.14,0,0,0-1-1.82l-9.71-5.89A.78.78,0,0,0,281.37,281.54Z" transform="translate(-67.72 -16.9)"/><path class="cls-7" d="M237.34,87.36v2.87a1,1,0,0,0,.48.87L270,110.9a.46.46,0,0,0,.7-.39v-2.75a1.48,1.48,0,0,0-.7-1.26L238.16,86.9A.54.54,0,0,0,237.34,87.36Z" transform="translate(-67.72 -16.9)"/><path class="cls-7" d="M249.16,103v2.87a1,1,0,0,0,.48.87L270,119.31a.46.46,0,0,0,.7-.39v-2.75a1.48,1.48,0,0,0-.7-1.26l-20-12.39A.54.54,0,0,0,249.16,103Z" transform="translate(-67.72 -16.9)"/><path class="cls-7" d="M221.45,94.42V97.3a1,1,0,0,0,.48.87L270,127.71a.46.46,0,0,0,.7-.39v-2.75a1.48,1.48,0,0,0-.7-1.26L222.28,94A.54.54,0,0,0,221.45,94.42Z" transform="translate(-67.72 -16.9)"/><path class="cls-7" d="M225.74,105.38v2.88a1,1,0,0,0,.48.86l43.8,27a.46.46,0,0,0,.7-.39V133a1.48,1.48,0,0,0-.7-1.26l-43.46-26.79A.54.54,0,0,0,225.74,105.38Z" transform="translate(-67.72 -16.9)"/><path class="cls-7" d="M244.85,125.58v2.88a1,1,0,0,0,.48.86L270,144.52a.46.46,0,0,0,.7-.39v-2.75a1.48,1.48,0,0,0-.7-1.26l-24.35-15A.54.54,0,0,0,244.85,125.58Z" transform="translate(-67.72 -16.9)"/><path class="cls-7" d="M221.45,119.63v2.87a1,1,0,0,0,.48.87L270,152.92a.46.46,0,0,0,.7-.39v-2.75a1.48,1.48,0,0,0-.7-1.26l-47.75-29.34A.54.54,0,0,0,221.45,119.63Z" transform="translate(-67.72 -16.9)"/><path class="cls-7" d="M221.45,128v2.87a1,1,0,0,0,.48.87L270,161.33a.46.46,0,0,0,.7-.39v-2.75a1.48,1.48,0,0,0-.7-1.26l-47.75-29.34A.54.54,0,0,0,221.45,128Z" transform="translate(-67.72 -16.9)"/><path class="cls-7" d="M233,143.58v2.88a1,1,0,0,0,.48.86L270,169.73a.46.46,0,0,0,.7-.39v-2.75a1.48,1.48,0,0,0-.7-1.26l-36.21-22.21A.54.54,0,0,0,233,143.58Z" transform="translate(-67.72 -16.9)"/><path class="cls-7" d="M221.45,144.84v2.87a1,1,0,0,0,.48.87L270,178.14a.46.46,0,0,0,.7-.39V175a1.48,1.48,0,0,0-.7-1.26l-47.75-29.34A.54.54,0,0,0,221.45,144.84Z" transform="translate(-67.72 -16.9)"/><path class="cls-7" d="M221.45,153.25v2.87a1,1,0,0,0,.48.86L270,186.54a.46.46,0,0,0,.7-.39v-2.75a1.48,1.48,0,0,0-.7-1.26l-47.75-29.34A.54.54,0,0,0,221.45,153.25Z" transform="translate(-67.72 -16.9)"/><path class="cls-11" d="M297.91,148.37c0,4.47,3.62,13.62,8.1,16.41s8.1-1.82,8.1-6.29-3.62-10.36-8.1-13.16S297.91,143.9,297.91,148.37Z" transform="translate(-67.72 -16.9)"/><path class="cls-11" d="M286.41,173.42v1.32l39.2,24.49v-1.32c0-10.82-8.77-25.08-19.6-31.85-5.42-3.38-10.31-4.25-13.86-2.92S286.41,168,286.41,173.42Z" transform="translate(-67.72 -16.9)"/><path class="cls-11" d="M241.21,72.92l59,35.47v-1.51c0-4.5-3.65-10.34-8.15-13L249.35,68.16c-4.5-2.7-8.15-1.25-8.15,3.25Z" transform="translate(-67.72 -16.9)"/><path class="cls-12" d="M258.59,74.46v.63l24.27,14.58V89a7.15,7.15,0,0,0-3.35-5.36l-1.62-1c-2.4-1.44-4.14-4.78-3.48-6.7h0a3.17,3.17,0,0,0,.11-.82,8.09,8.09,0,0,0-3.67-6,3,3,0,0,0-2-.52c-1.9.34-2.07,1.57-1.77,2.92h0c.65,2.7-1.08,4-3.48,2.51l-1.62-1C260.09,72,258.59,72.61,258.59,74.46Zm10.16-2.75c0-1.09.88-1.45,2-.79a4.22,4.22,0,0,1,2,3.17c0,1.09-.88,1.44-2,.78A4.22,4.22,0,0,1,268.75,71.71Z" transform="translate(-67.72 -16.9)"/><path class="cls-7" d="M221.45,111.11V114a1,1,0,0,0,.48.86l19.75,12.26a.46.46,0,0,0,.7-.39V124a1.48,1.48,0,0,0-.7-1.26l-19.41-12.06A.54.54,0,0,0,221.45,111.11Z" transform="translate(-67.72 -16.9)"/></g><g class="cls-14"><path class="cls-2" d="M668.05,320.82v.63L692.32,336v-.63A7.15,7.15,0,0,0,689,330l-1.62-1c-2.4-1.44-4.14-4.78-3.48-6.7h0a3.17,3.17,0,0,0,.11-.82,8.09,8.09,0,0,0-3.67-6,3,3,0,0,0-2-.52c-1.9.34-2.07,1.57-1.77,2.92h0c.65,2.7-1.08,4-3.48,2.51l-1.62-1C669.55,318.37,668.05,319,668.05,320.82Zm10.16-2.75c0-1.09.88-1.45,2-.79a4.22,4.22,0,0,1,2,3.17c0,1.09-.88,1.44-2,.78A4.22,4.22,0,0,1,678.21,318.07Z" transform="translate(-67.72 -16.9)"/><path class="cls-3" d="M650.67,319.28l59,35.47v-1.51c0-4.5-3.65-10.34-8.15-13l-42.74-25.68c-4.5-2.7-8.15-1.25-8.15,3.25Z" transform="translate(-67.72 -16.9)"/><path class="cls-4" d="M610.59,297.86l3.64-1.49v0a3.11,3.11,0,0,1,2.82.23l132.71,81.56a8.88,8.88,0,0,1,4.23,7.56V602a3.66,3.66,0,0,1-1.89,3.22h0a3.77,3.77,0,0,1-.81.33l-2.78,1.14-1.11-2.14-131.73-81a7.27,7.27,0,0,1-3.46-6.19V299.33a3.14,3.14,0,0,1,.22-1.1l-1.4.4Z" transform="translate(-67.72 -16.9)"/><path class="cls-5" d="M608.77,300.73v218.1a7.27,7.27,0,0,0,3.46,6.19l132.69,81.55a3.7,3.7,0,0,0,5.63-3.15V387.15a8.88,8.88,0,0,0-4.23-7.56L613.61,298A3.18,3.18,0,0,0,608.77,300.73Z" transform="translate(-67.72 -16.9)"/><path class="cls-6" d="M613.61,306.22V517.62a2.72,2.72,0,0,0,1.3,2.32l128.91,79.23a1.24,1.24,0,0,0,1.89-1.06V387a4,4,0,0,0-1.89-3.37L615.81,305A1.45,1.45,0,0,0,613.61,306.22Z" transform="translate(-67.72 -16.9)"/><path class="cls-7" d="M686.79,362v78.85a1,1,0,0,0,.48.86l48.08,29.55a.46.46,0,0,0,.7-.39V392.16a1.48,1.48,0,0,0-.7-1.26l-47.75-29.34A.54.54,0,0,0,686.79,362Z" transform="translate(-67.72 -16.9)"/><path class="cls-7" d="M686.79,455.75v7.56a1,1,0,0,0,.48.87l48.08,29.55a.46.46,0,0,0,.7-.39v-7.44a1.48,1.48,0,0,0-.7-1.26l-47.75-29.34A.54.54,0,0,0,686.79,455.75Z" transform="translate(-67.72 -16.9)"/><path class="cls-8" d="M691.83,430.87v6a.81.81,0,0,0,.38.69l38.25,23.51a.37.37,0,0,0,.56-.31v-5.92a1.17,1.17,0,0,0-.56-1l-38-23.35A.43.43,0,0,0,691.83,430.87Z" transform="translate(-67.72 -16.9)"/><path class="cls-7" d="M686.79,471.43V479a1,1,0,0,0,.48.87l48.08,29.55a.46.46,0,0,0,.7-.39v-7.44a1.48,1.48,0,0,0-.7-1.26L687.62,471A.54.54,0,0,0,686.79,471.43Z" transform="translate(-67.72 -16.9)"/><path class="cls-7" d="M697.73,493.82v7.56a1,1,0,0,0,.48.86l37.15,22.84a.46.46,0,0,0,.7-.39v-7.44a1.48,1.48,0,0,0-.7-1.26l-36.81-22.63A.54.54,0,0,0,697.73,493.82Z" transform="translate(-67.72 -16.9)"/><path class="cls-7" d="M634.32,446v7.56a1,1,0,0,0,.48.87l37.15,22.84a.46.46,0,0,0,.7-.39v-7.44a1.48,1.48,0,0,0-.7-1.26l-36.81-22.63A.54.54,0,0,0,634.32,446Z" transform="translate(-67.72 -16.9)"/><path class="cls-7" d="M634.32,468.25v7.56a1,1,0,0,0,.48.87l37.15,22.84a.46.46,0,0,0,.7-.39v-7.44a1.48,1.48,0,0,0-.7-1.26l-36.81-22.63A.54.54,0,0,0,634.32,468.25Z" transform="translate(-67.72 -16.9)"/><path class="cls-7" d="M686.79,502.78v7.56a1,1,0,0,0,.48.86l48.08,29.55a.46.46,0,0,0,.7-.39v-7.44a1.48,1.48,0,0,0-.7-1.26l-47.75-29.34A.54.54,0,0,0,686.79,502.78Z" transform="translate(-67.72 -16.9)"/><path class="cls-7" d="M720.53,550.45v11a1.47,1.47,0,0,0,.7,1.25l10.19,6.19a.67.67,0,0,0,1-.57V557.5a2.14,2.14,0,0,0-1-1.82l-9.71-5.89A.78.78,0,0,0,720.53,550.45Z" transform="translate(-67.72 -16.9)"/><path class="cls-9" d="M703.66,540.14v11a1.47,1.47,0,0,0,.7,1.25l10.19,6.19a.67.67,0,0,0,1-.57V547.19a2.14,2.14,0,0,0-1-1.82l-9.71-5.89A.78.78,0,0,0,703.66,540.14Z" transform="translate(-67.72 -16.9)"/><path class="cls-10" d="M686.79,529.83v11a1.47,1.47,0,0,0,.7,1.25l10.19,6.19a.67.67,0,0,0,1-.57V536.88a2.14,2.14,0,0,0-1-1.82L688,529.16A.78.78,0,0,0,686.79,529.83Z" transform="translate(-67.72 -16.9)"/><path class="cls-7" d="M642.76,335.65v2.87a1,1,0,0,0,.48.87l32.2,19.8a.46.46,0,0,0,.7-.39V356a1.48,1.48,0,0,0-.7-1.26l-31.87-19.6A.54.54,0,0,0,642.76,335.65Z" transform="translate(-67.72 -16.9)"/><path class="cls-7" d="M654.58,351.26v2.88a1,1,0,0,0,.48.86l20.38,12.6a.46.46,0,0,0,.7-.39v-2.75a1.48,1.48,0,0,0-.7-1.26l-20-12.39A.54.54,0,0,0,654.58,351.26Z" transform="translate(-67.72 -16.9)"/><path class="cls-7" d="M626.87,342.71v2.87a1,1,0,0,0,.48.87L675.44,376a.46.46,0,0,0,.7-.39v-2.75a1.48,1.48,0,0,0-.7-1.26l-47.75-29.34A.54.54,0,0,0,626.87,342.71Z" transform="translate(-67.72 -16.9)"/><path class="cls-7" d="M631.16,353.67v2.87a1,1,0,0,0,.48.87l43.8,27a.46.46,0,0,0,.7-.39v-2.75a1.48,1.48,0,0,0-.7-1.26L632,353.21A.54.54,0,0,0,631.16,353.67Z" transform="translate(-67.72 -16.9)"/><path class="cls-7" d="M650.27,373.88v2.87a1,1,0,0,0,.48.87l24.69,15.2a.46.46,0,0,0,.7-.39v-2.75a1.48,1.48,0,0,0-.7-1.26l-24.35-15A.54.54,0,0,0,650.27,373.88Z" transform="translate(-67.72 -16.9)"/><path class="cls-7" d="M626.87,367.93v2.87a1,1,0,0,0,.48.87l48.08,29.55a.46.46,0,0,0,.7-.39v-2.75a1.48,1.48,0,0,0-.7-1.26l-47.75-29.34A.54.54,0,0,0,626.87,367.93Z" transform="translate(-67.72 -16.9)"/><path class="cls-7" d="M626.87,376.33v2.87a1,1,0,0,0,.48.86l48.08,29.55a.46.46,0,0,0,.7-.39v-2.75a1.48,1.48,0,0,0-.7-1.26l-47.75-29.34A.54.54,0,0,0,626.87,376.33Z" transform="translate(-67.72 -16.9)"/><path class="cls-7" d="M638.41,391.87v2.88a1,1,0,0,0,.48.86L675.44,418a.46.46,0,0,0,.7-.39v-2.75a1.48,1.48,0,0,0-.7-1.26l-36.21-22.21A.54.54,0,0,0,638.41,391.87Z" transform="translate(-67.72 -16.9)"/><path class="cls-7" d="M626.87,393.14V396a1,1,0,0,0,.48.86l48.08,29.55a.46.46,0,0,0,.7-.39v-2.75a1.48,1.48,0,0,0-.7-1.26l-47.75-29.34A.54.54,0,0,0,626.87,393.14Z" transform="translate(-67.72 -16.9)"/><path class="cls-7" d="M626.87,401.54v2.88a1,1,0,0,0,.48.86l48.08,29.55a.46.46,0,0,0,.7-.39v-2.75a1.48,1.48,0,0,0-.7-1.26l-47.75-29.34A.54.54,0,0,0,626.87,401.54Z" transform="translate(-67.72 -16.9)"/><path class="cls-11" d="M703.33,396.66c0,4.47,3.62,13.62,8.1,16.41s8.1-1.82,8.1-6.29-3.62-10.36-8.1-13.16S703.33,392.19,703.33,396.66Z" transform="translate(-67.72 -16.9)"/><path class="cls-11" d="M691.83,421.72V423L731,447.53v-1.32c0-10.82-8.77-25.08-19.6-31.85-5.42-3.38-10.31-4.25-13.86-2.92S691.83,416.31,691.83,421.72Z" transform="translate(-67.72 -16.9)"/><path class="cls-11" d="M646.63,321.22l59,35.47v-1.51c0-4.5-3.65-10.34-8.15-13l-42.74-25.68c-4.5-2.7-8.15-1.25-8.15,3.25Z" transform="translate(-67.72 -16.9)"/><path class="cls-12" d="M664,322.75v.63L688.28,338v-.63a7.15,7.15,0,0,0-3.35-5.36l-1.62-1c-2.4-1.44-4.14-4.78-3.48-6.7h0a3.18,3.18,0,0,0,.11-.82,8.09,8.09,0,0,0-3.67-6,3,3,0,0,0-2-.52c-1.9.34-2.07,1.57-1.77,2.92h0c.65,2.7-1.08,4-3.48,2.51l-1.62-1C665.51,320.31,664,320.91,664,322.75ZM674.17,320c0-1.09.88-1.45,2-.79a4.22,4.22,0,0,1,2,3.17c0,1.09-.88,1.44-2,.78A4.22,4.22,0,0,1,674.17,320Z" transform="translate(-67.72 -16.9)"/><path class="cls-7" d="M626.87,359.41v2.87a1,1,0,0,0,.48.87l19.75,12.26a.46.46,0,0,0,.7-.39v-2.75a1.48,1.48,0,0,0-.7-1.26l-19.41-12.06A.54.54,0,0,0,626.87,359.41Z" transform="translate(-67.72 -16.9)"/></g><path class="cls-15" d="M339.51,577.05,418,624.37a9,9,0,0,0,9.37,0l78.86-48.18a3,3,0,0,0,0-5.16l-80.12-48.3a7.79,7.79,0,0,0-8.08,0l-78.52,48A3.72,3.72,0,0,0,339.51,577.05Z" transform="translate(-67.72 -16.9)"/><path class="cls-16" d="M337.74,552.61a3.66,3.66,0,0,1,1.75-2.93l78.52-48a7.79,7.79,0,0,1,8.08,0L506.21,550a3,3,0,0,1,1.45,2.62h0v13.12h-.07a3,3,0,0,1-1.38,2l-78.86,48.18a9,9,0,0,1-9.37,0l-78.48-47.32a3.67,3.67,0,0,1-1.77-3.43h0V552.6Z" transform="translate(-67.72 -16.9)"/><path class="cls-11" d="M339.51,556,418,603.35a9,9,0,0,0,9.37,0l78.86-48.18a3,3,0,0,0,0-5.16l-80.12-48.3a7.79,7.79,0,0,0-8.08,0l-78.52,48A3.72,3.72,0,0,0,339.51,556Z" transform="translate(-67.72 -16.9)"/><path class="cls-15" d="M138.22,710.68,216.7,758a9,9,0,0,0,9.37,0l78.86-48.18a3,3,0,0,0,0-5.16l-80.12-48.3a7.79,7.79,0,0,0-8.08,0l-78.52,48A3.72,3.72,0,0,0,138.22,710.68Z" transform="translate(-67.72 -16.9)"/><path class="cls-16" d="M136.45,684.82a3.66,3.66,0,0,1,1.75-2.93l78.52-48a7.79,7.79,0,0,1,8.08,0l80.12,48.3a3,3,0,0,1,1.45,2.62h0v13.12h-.07a3,3,0,0,1-1.38,2l-78.86,48.18a9,9,0,0,1-9.37,0l-78.48-47.32a3.67,3.67,0,0,1-1.77-3.43h0V684.82Z" transform="translate(-67.72 -16.9)"/><path class="cls-11" d="M138.22,688.24l78.48,47.32a9,9,0,0,0,9.37,0l78.86-48.18a3,3,0,0,0,0-5.16l-80.12-48.3a7.79,7.79,0,0,0-8.08,0l-78.52,48A3.72,3.72,0,0,0,138.22,688.24Z" transform="translate(-67.72 -16.9)"/><path class="cls-17" d="M184.49,688v.16a.83.83,0,0,0,0,.18.62.62,0,0,1,.05.23c.29,1,1.46,3.65,5.92,4.43a8,8,0,0,0,.83.1,1.52,1.52,0,0,0,.34.05,27.54,27.54,0,0,0,3.34.05c.37,0,.73-.05,1.1-.1,4.85-1,9.36-4.72,10.54-5.74l.31-.29v-.91s3.21-2.14,4.38-2.84c3.57-2.11,8.71-3.91,13.61-6.34a14.5,14.5,0,0,0,3.44-2.32c.16-.16.31-.34.47-.47a2.94,2.94,0,0,0,.29-.29c.1-.13.18-.29.29-.42q.31-.43.55-.78l.21-.39.18-.37a2.27,2.27,0,0,0,.13-.39v0a6.38,6.38,0,0,0,.29-1.85v-3.21l-29.86,12.23-16.32,6.1Z" transform="translate(-67.72 -16.9)"/><path class="cls-18" d="M202.27,665.76a118.34,118.34,0,0,0,13.15-1.62c8.15-1.39,13.77-1.79,14.82.75s1.26,5.11-6,10.09-12.91,5.5-18.74,10.2c-4.32,3.48-8.21,4.3-12.55,4.6s-7.28-1.37-8.23-3.14c-2.2-4.11.08-11.91.08-11.91" transform="translate(-67.72 -16.9)"/><path class="cls-17" d="M213.86,692.78l0,4a3.79,3.79,0,0,0,2.06,3.5,5.64,5.64,0,0,0,1.76.5c5.05.57,12.83-.63,12.83-.63V698.7s2.77-.31,10.93-1.32a48.68,48.68,0,0,0,16.89-5,3.66,3.66,0,0,0,2-3.24l0-3-32.07,5.66Z" transform="translate(-67.72 -16.9)"/><path class="cls-18" d="M236.37,678.57s3.57,3.36,7.77,3.36,12.39-.11,14.49,1.36a3.45,3.45,0,0,1,1.64,2.62,5.32,5.32,0,0,1-1.12,3.26c-1.57,2.31-12.18,5.78-20.16,6.4s-8.4.53-12.18,1.16-7.71.93-10.09-.25c-4.12-2-4.4-8.25-1.88-12.35S236.37,678.57,236.37,678.57Z" transform="translate(-67.72 -16.9)"/><path class="cls-5" d="M217.85,404.55l56,33.72,19.5-47.37a3.91,3.91,0,0,0-1.6-4.83L241.66,355.9a3,3,0,0,0-4.37,1.45Z" transform="translate(-67.72 -16.9)"/><path class="cls-6" d="M220.39,403.64l52.08,31.46,18-43.73c.81-2.17.79-3.15-1.47-4.46l-48.09-29a1.35,1.35,0,0,0-1.94.64Z" transform="translate(-67.72 -16.9)"/><path class="cls-19" d="M269.83,394.54l10.92,6.57a.56.56,0,0,0,.8-.27l4-9.67a.56.56,0,0,0-.23-.69l-10.92-6.57a.56.56,0,0,0-.8.27l-4,9.67A.56.56,0,0,0,269.83,394.54Z" transform="translate(-67.72 -16.9)"/><path class="cls-20" d="M253.82,384.9l10.92,6.57a.56.56,0,0,0,.8-.27l4-9.67a.56.56,0,0,0-.23-.69l-10.92-6.57a.56.56,0,0,0-.8.27l-4,9.67A.56.56,0,0,0,253.82,384.9Z" transform="translate(-67.72 -16.9)"/><path class="cls-21" d="M246.57,408.33,264.29,419a.91.91,0,0,0,1.3-.43l6.46-15.69a.91.91,0,0,0-.37-1.12L254,391.09a.91.91,0,0,0-1.3.43l-6.46,15.69A.91.91,0,0,0,246.57,408.33Z" transform="translate(-67.72 -16.9)"/><path class="cls-21" d="M243.28,390.19l5.91,3.56a.3.3,0,0,0,.44-.14l.13-.37a.3.3,0,0,0-.12-.37l-5.91-3.56a.3.3,0,0,0-.43.14l-.13.37A.3.3,0,0,0,243.28,390.19Z" transform="translate(-67.72 -16.9)"/><path class="cls-21" d="M248,395.6a.54.54,0,0,0,.77-.25l.23-.65a.53.53,0,0,0-.22-.66l-10.47-6.3a.54.54,0,0,0-.77.25l-.23.65a.53.53,0,0,0,.22.66" transform="translate(-67.72 -16.9)"/><path class="cls-21" d="M236.71,391.19l10.47,6.3a.54.54,0,0,0,.77-.25l.23-.65a.53.53,0,0,0-.22-.66l-10.47-6.3a.54.54,0,0,0-.77.25l-.23.65A.54.54,0,0,0,236.71,391.19Z" transform="translate(-67.72 -16.9)"/><path class="cls-21" d="M235.93,393.08l10.47,6.3a.54.54,0,0,0,.77-.25l.23-.65a.53.53,0,0,0-.22-.66l-10.47-6.3a.53.53,0,0,0-.77.25l-.23.65A.54.54,0,0,0,235.93,393.08Z" transform="translate(-67.72 -16.9)"/><path class="cls-20" d="M235.14,395l10.47,6.3a.54.54,0,0,0,.77-.25l.23-.65a.53.53,0,0,0-.22-.66l-10.47-6.3a.53.53,0,0,0-.77.25l-.23.65A.54.54,0,0,0,235.14,395Z" transform="translate(-67.72 -16.9)"/><path class="cls-19" d="M234.36,396.86l10.47,6.3a.54.54,0,0,0,.77-.25l.23-.65a.53.53,0,0,0-.22-.66l-10.47-6.3a.53.53,0,0,0-.77.25l-.23.65A.54.54,0,0,0,234.36,396.86Z" transform="translate(-67.72 -16.9)"/><path class="cls-21" d="M237.8,375.26l10.92,6.57a.56.56,0,0,0,.8-.27l4-9.67a.56.56,0,0,0-.23-.69l-10.92-6.57a.56.56,0,0,0-.8.27l-4,9.67A.56.56,0,0,0,237.8,375.26Z" transform="translate(-67.72 -16.9)"/><path class="cls-22" d="M218.63,388.08a17.73,17.73,0,0,0,4.08,3l.71-.91a2.73,2.73,0,0,1,1.8-1c1.38-.18,3.76-.69,5-2.07a26.23,26.23,0,0,0,2.88-4.62.21.21,0,0,0,0-.07,1.45,1.45,0,0,1,.15-.3c.28-.65.86-2,.9-2.17a.46.46,0,0,0-.17-.39l-.06,0c-.49-.26-1.21-.56-1.64-.3a13.2,13.2,0,0,0-2.13,2.41,6.24,6.24,0,0,1-2.6,1.89c-.11.06-.22.09-.32.15s-.64-.36-.15-1.53l3.55-8.67c-3.61.13-6.65,4.73-8.15,8.54A37.64,37.64,0,0,0,218.63,388.08Z" transform="translate(-67.72 -16.9)"/><path class="cls-23" d="M268.94,431.07l5.46,4.54,1,.86s1.25-5.23,3.46-7.22a14.19,14.19,0,0,1,4.22-1.91,3.38,3.38,0,0,0,1.81-1.22c1.07-1.46,2.64-4.65,1.81-10.21a6.17,6.17,0,0,0-.71-2.3.06.06,0,0,1,0,0c-.67-1.16-1.51-1.12-1.51-1.12s-3.68,2.62-4.75,3.4c-.88.65-2,1.93-2.86,1-.47-.49,2.22-3.89,3-5.44s-.69-3.23-1.33-2.64a37.58,37.58,0,0,0-5.93,9.38C271.07,422.16,268.94,431.07,268.94,431.07Z" transform="translate(-67.72 -16.9)"/><path class="cls-24" d="M273.14,431.73l1.25,3.89,1,.86s1.25-5.23,3.46-7.22a14.19,14.19,0,0,1,4.22-1.91,3.38,3.38,0,0,0,1.81-1.22c1.07-1.46,2.64-4.65,1.81-10.21a6.17,6.17,0,0,0-.71-2.3.06.06,0,0,1,0,0s0,1-1.55,2.3a38,38,0,0,1-4.8,3.23c-1,.67-2.69,3.12-3.7,5.57S273.14,431.73,273.14,431.73Z" transform="translate(-67.72 -16.9)"/><path class="cls-23" d="M192.81,381.54l-.65,1.51,1,5,16,8L210,396l2.56-.31,4-.52V389.6a7.25,7.25,0,0,1,4.15-6.73l.18-.08a7.76,7.76,0,0,0,2.71-1.83l.23-.23c3.08-3.26,5.82-10.59,5-26.62-.16-2.79-.78-7.64-2.06-10.12-2.32-4.46-7.25-7.41-17.42-4.62-16.95,4.69-24.36,12.39-25.22,19S192.81,381.54,192.81,381.54Z" transform="translate(-67.72 -16.9)"/><path class="cls-11" d="M222.83,392.46l.8-2s-3.83-2.36-4.61-3.42a15.84,15.84,0,0,0-1.17,1.7S219,390.85,222.83,392.46Z" transform="translate(-67.72 -16.9)"/><path class="cls-25" d="M222.93,392.22a37.85,37.85,0,0,1-5.25-4.09s-1.39,2.27-2.53,4.29-.92,6.29-.92,6.29l5.29,1.8Z" transform="translate(-67.72 -16.9)"/><path class="cls-26" d="M216.62,395.13V389.6a7.25,7.25,0,0,1,4.15-6.73c-.83.37-3.41,1.6-6.83,3.43-1.37.73-1.33,5.15-1.33,9.34Z" transform="translate(-67.72 -16.9)"/><path class="cls-27" d="M276.44,436.35l1-3a2.4,2.4,0,0,0-.12-1.76,14.32,14.32,0,0,0-2.5-3.86,3.76,3.76,0,0,0-4.57-.74,6.66,6.66,0,0,0-1.19,2.3,7.72,7.72,0,0,0-.24,2.72c.08.2,2,3,2.25,3.23A52.46,52.46,0,0,0,276.44,436.35Z" transform="translate(-67.72 -16.9)"/><path class="cls-28" d="M176.46,533.2c3.78,20.65,6.49,46.26,6.49,46.26s-6.31,51.29.78,96c.31,2.11,1,6.57,3.76,8.32a10.16,10.16,0,0,0,8.76-.05l.39-.21c10.59-5.79,9.47-13.3,11-18.23,0-19.87-2.11-68.76,2.11-79.51l3.78-43.34-1.38-31H174.24v.1l-.18-.1S170.83,519.75,176.46,533.2Z" transform="translate(-67.72 -16.9)"/><path class="cls-29" d="M188,534c3.57,11.73,8.16,42.37,9.13,49.86,0,0-3.52,59-.52,99.59,10.59-5.79,9.47-13.3,11-18.23,0-19.87-2.11-68.76,2.11-79.51l3.78-43.34-1.38-31H186.08A57.43,57.43,0,0,0,188,534Z" transform="translate(-67.72 -16.9)"/><path class="cls-28" d="M190.46,521.65a60.8,60.8,0,0,0,8.19,19.82c.73,1.1,1.38,2.22,2,3.34.13.52,2,7.46,4.28,16.77s5.08,21,7.07,30.93c-1.1,12.46-4.17,56.12,1.7,93.93a6.93,6.93,0,0,0,5,5.63,12.44,12.44,0,0,0,4.17.44,10.48,10.48,0,0,0,3.49-.83c6.21-2.61,10.69-12.54,10.69-12.54s.16-62.79,3.42-79.27a73.41,73.41,0,0,0,1.15-9.52c.6-10.09,1.7-28.5,2-36.19.65-15,.76-27.54.23-33.14l-31.06.39Z" transform="translate(-67.72 -16.9)"/><path class="cls-29" d="M212.81,521.39l.26,3.08s.31,7.82,4.25,19.56,7.89,39.56,8.31,50c.42,9.6-4.69,55.33-2.78,98.49a10.48,10.48,0,0,0,3.49-.83c6.21-2.61,10.69-12.54,10.69-12.54s.16-62.79,3.42-79.27a73.41,73.41,0,0,0,1.15-9.52c.6-10.09,1.7-28.5,2-36.19.65-15,.76-27.54.23-33.14Z" transform="translate(-67.72 -16.9)"/><path class="cls-30" d="M170.38,434.06c5,15.2,7.82,40.18,4.8,50.61s-4.8,25.22-4.8,25.22c2.84,7.82,29.34,24.77,44.12,26.08a22.26,22.26,0,0,0,5.42-.21c13-1.93,25.22-13.48,25.22-13.48s-2.82-42.82-4.56-70.2c-1.17-18.2-3.86-29.54-5.55-35.1a42,42,0,0,0-1.41-4.12c-1.56-2.06-6.23-5.55-12.18-9.47a.44.44,0,0,1-.13-.05c-4-2.66-8.53-5.48-13.09-8.16h0c-6.08-3.6-12.2-7-17.11-9.41q-.86-.43-1.64-.78a39,39,0,0,0-7.54-3.08c-7-1.3-16.3,2.37-19.11,15S165.4,418.83,170.38,434.06Z" transform="translate(-67.72 -16.9)"/><path class="cls-25" d="M221.49,484.49c.89,11.68-.89,40.84-1.56,51.27,13-1.93,25.22-13.48,25.22-13.48s-2.82-42.82-4.56-70.2c-1.17-18.2-3.86-29.54-5.55-35.1-1.41-1.62-2.32-2.63-2.32-2.63H215.55s-8.92,1.83-5.68,22.14S220.42,470.15,221.49,484.49Z" transform="translate(-67.72 -16.9)"/><path class="cls-31" d="M299.93,352.65" transform="translate(-67.72 -16.9)"/><path class="cls-25" d="M189.34,391.4c2.61,3.57,12,8.74,16.26,9.65a38.24,38.24,0,0,0,9.81.42c2.87,0,5.08,1.54,5.89,1.88a.44.44,0,0,0,.13.05.08.08,0,0,0,.05,0l-2.56-3.89-3-1.9s-4.35-1.59-5.32-2a11,11,0,0,0-2.43-.42h0c-2.58-.31-6.28-.57-6.86-.65-.81-.1-7.54-4.72-7.82-4.9s-1.49-2.29-2.43-3.86q-.86-.43-1.64-.78A5,5,0,0,0,189.34,391.4Z" transform="translate(-67.72 -16.9)"/><path class="cls-32" d="M179.77,359c1.46,8.71,8.84,22.4,12.57,23.65a21.84,21.84,0,0,0,6.15,1.17,5.87,5.87,0,0,0,6-4.8,28,28,0,0,1,2.53-7.88c2.61-4.82,6-7.35,7.74-6.44s1.54,4,1.54,4l1.12,0s.1-1,.26-2.32.26-3,.34-4.25a14.78,14.78,0,0,1,3-9,35.71,35.71,0,0,0,4.17-7.69,14.09,14.09,0,0,0,1-6.88v0c-.7-6.7-3.43-9.45-6-11.34-8.44-6.18-26.08,5.29-32.6,10.77a22.45,22.45,0,0,0-7.3,10.38v0A22.38,22.38,0,0,0,179.77,359Z" transform="translate(-67.72 -16.9)"/><path class="cls-11" d="M190.55,384.57l1.61-1.5a37.53,37.53,0,0,0,24.45,12.06s3.81,3.84,4.89,8.31L219.28,402a9.93,9.93,0,0,0-3.84-1.5c-.87-.14-2.81-.23-2.81-.23-8.71-.12-17.37-6.2-21.91-10A3.82,3.82,0,0,1,190.55,384.57Z" transform="translate(-67.72 -16.9)"/><path class="cls-33" d="M275.94,432.67" transform="translate(-67.72 -16.9)"/><path class="cls-33" d="M292.35,393.25" transform="translate(-67.72 -16.9)"/><path class="cls-34" d="M230,673.57a4.35,4.35,0,0,1-.55.79C229.63,674.08,229.82,673.81,230,673.57Z" transform="translate(-67.72 -16.9)"/><path class="cls-34" d="M229.13,674.77c.12-.12.18-.28.29-.41-.17.22-.35.45-.57.7A2.94,2.94,0,0,0,229.13,674.77Z" transform="translate(-67.72 -16.9)"/><path class="cls-28" d="M213.67,428.56c1.64,9.6,19.95,37.52,20.71,38.65a134.76,134.76,0,0,0,9.15,13.06h0c2.43,3,4.43,5,5.68,5.35a6,6,0,0,0,.73.18c5.68,1.36,10-2.32,11.55-6.44,1.49-3.26,5.92-11,9.54-20.86,2.43-6.6,3.89-14.66,5.45-21.23a6.42,6.42,0,0,0-.65-4.69c-.08-.1-.13-.23-.21-.34-1-1.69-2.43-3.6-3.68-3.81-2.29-.34-2.74.26-2.74.26s-4.2,6.75-7.54,12c-2.58,4-5.48,11.11-6.65,14.08-.31.89-.52,1.41-.52,1.41-6-14.06-14-31.32-17.16-38.54-3.89-8.74-15.7-10.61-21.83-3.26a2.74,2.74,0,0,1-.26.31,5.21,5.21,0,0,0-.86,1.75l0,0-.05.05C214,416.82,212.13,419.59,213.67,428.56Z" transform="translate(-67.72 -16.9)"/><path class="cls-18" d="M179.77,359c1.46,8.71,8.84,22.4,12.57,23.65a21.84,21.84,0,0,0,6.15,1.17,5.87,5.87,0,0,0,6-4.8,28,28,0,0,1,2.53-7.88c2.61-4.82,6-7.35,7.74-6.44s1.54,4,1.54,4l1.12,0s.1-1,.26-2.32.26-3,.34-4.25a14.78,14.78,0,0,1,3-9,35.71,35.71,0,0,0,4.17-7.69,14.09,14.09,0,0,0,1-6.88,38.53,38.53,0,0,1-27.48,22.61c-20.5,4.3-18.57-12-18.44-12.8A22.38,22.38,0,0,0,179.77,359Z" transform="translate(-67.72 -16.9)"/><path class="cls-35" d="M256.17,464.62s1.12-7.12-1.12-9.88c-.31.89-.52,1.41-.52,1.41A19,19,0,0,1,256.17,464.62Z" transform="translate(-67.72 -16.9)"/><path class="cls-29" d="M214.35,416.43l.08,0s-.63,8,7,21.36,23.76,45.32,31.74,44.43c4.21-.46,5.7-7.15,7.38-8.34,3.64-2.6,6.1-11.86,9.57-21.1a154.22,154.22,0,0,0,5.58-20.52c.08.1.13.23.21.34a6.42,6.42,0,0,1,.65,4.69c-1.56,6.57-3,14.63-5.45,21.23-3.62,9.91-8.06,17.6-9.54,20.86-1.57,4.12-5.87,7.74-11.55,6.4v0a6,6,0,0,1-.73-.18c-1.25-.37-3.26-2.32-5.68-5.35h0a134.76,134.76,0,0,1-9.15-13.06c-.76-1.12-19.06-29-20.71-38.65C212.13,419.59,214,416.82,214.35,416.43Z" transform="translate(-67.72 -16.9)"/><path class="cls-17" d="M457.52,556.42s-.81,3.23-1.28,6-.61,6.22-.92,9.1A39.1,39.1,0,0,1,451.08,583a11.18,11.18,0,0,1-6,4.29,19.49,19.49,0,0,1-9.29-.19,4.48,4.48,0,0,1-2.38-2.37" transform="translate(-67.72 -16.9)"/><path class="cls-17" d="M386.41,545.88c0,1.79,2.67,3,5.42,3.27a27.49,27.49,0,0,0,8.9-1.24,44.2,44.2,0,0,0,6.9-2.61,8.89,8.89,0,0,1,5.07-.45s0,.3,0,.64a23.3,23.3,0,0,0,12.36-2.07l0,0s.06-1.42,0-2.64c-.06-1-.24-2.58-.24-2.58l-38.41,6.41Z" transform="translate(-67.72 -16.9)"/><path class="cls-36" d="M432.29,581.63c0,.34.09.67.15,1a4.83,4.83,0,0,0,3.31,3.89c3.61,1.23,10.28.58,13.57-3s5.63-12.77,5.63-18.26a24.47,24.47,0,0,1,2.88-10.58h-15a3.65,3.65,0,0,0-.36.49c-2.58,3.61-9.29,17.33-9.94,21.76A21.07,21.07,0,0,0,432.29,581.63Z" transform="translate(-67.72 -16.9)"/><path class="cls-37" d="M432.29,581.63a.75.75,0,0,0,.15-.37c.65-3.57,4.08-10.45,5.89-14.08s5.2-10.23,5.2-10.23-.45-.79-1-1.79c-2.58,3.61-9.29,17.33-9.94,21.76A21.07,21.07,0,0,0,432.29,581.63Z" transform="translate(-67.72 -16.9)"/><path class="cls-38" d="M432.44,582.61a4.83,4.83,0,0,0,3.31,3.89c3.61,1.23,10.28.58,13.57-3s5.63-12.77,5.63-18.26a24.47,24.47,0,0,1,2.88-10.58h-6.08l-.49,3.16s-.17,12.77-3.2,19.09-8.58,7.63-11,7.48-3.94-.49-4.62-1.76A0,0,0,0,0,432.44,582.61Z" transform="translate(-67.72 -16.9)"/><path class="cls-36" d="M386.4,545.29a2.37,2.37,0,0,0,1.35,1.93c2.5,1.14,7.76.77,11,0s9.14-3.59,12.28-3.93,9.25-.88,10.79-1.31,3.14-1.27,3.48-4.24a9.51,9.51,0,0,0-1.16-5.4l-2.47.15-14.54.93-.34,0-7.42,2.65c-2.37.82-7.33,1.59-10.58,4.62a10,10,0,0,0-1.31,1.46l0,0A4.47,4.47,0,0,0,386.4,545.29Z" transform="translate(-67.72 -16.9)"/><path class="cls-37" d="M387.43,542.17c2.37-2,7.35-3.55,11.4-4.6s8.08-2.34,8.08-2.34.09-.79.17-1.81l-.34,0-7.42,2.65c-2.37.82-7.33,1.59-10.58,4.62A10,10,0,0,0,387.43,542.17Z" transform="translate(-67.72 -16.9)"/><path class="cls-38" d="M386.4,545.28a2.37,2.37,0,0,0,1.35,1.93c2.5,1.14,7.76.77,11,0s9.14-3.59,12.28-3.93,9.25-.88,10.79-1.31,3.14-1.27,3.48-4.24a9.51,9.51,0,0,0-1.16-5.4l-2.47.15.07.79s2.28,3.16.77,5.55-7.18,2-10.64,2.45-8.41,3.22-13.2,4-10.52,1.51-12.21,0Z" transform="translate(-67.72 -16.9)"/><path class="cls-28" d="M397.58,454c.6,2.43,1.08,4.8,1.5,7.08a.6.6,0,0,1,0,.13c.39,2.24.71,4.39,1,6.41,0,.07,0,.13,0,.21s.09.58.17,1.1.15,1,.22,1.51c.64,4.13,1.79,12.66,2.8,24.24a1.23,1.23,0,0,1,0,.26c.41,3.85.77,9.07,1.07,14.6.07,1.27.15,2.56.21,3.87.36,7.23.64,14.62.8,20a3.77,3.77,0,0,0,2,3.22,6.79,6.79,0,0,0,3.16.84,22.83,22.83,0,0,0,7.78-1,16.48,16.48,0,0,0,4.37-2.22,4.14,4.14,0,0,0,1.66-3.5c-.13-4.58-.41-16.71.07-28.84.6-15.38,1.79-44.34,1.79-44.34l-5.42-48.55-10.08-2.24c.52-2.82,1.08-6.06,1.48-8.34l.5-3H393s0,.28,0,.82C392.76,401.54,391.73,430.59,397.58,454Z" transform="translate(-67.72 -16.9)"/><path class="cls-39" d="M397.58,454c.6,2.43,1.08,4.8,1.5,7.08-.19-1.66-2-17.7-2.82-25.89-.86-8.65.54-35.69.54-35.69l-3.79-3.2C392.76,401.54,391.73,430.59,397.58,454Z" transform="translate(-67.72 -16.9)"/><path class="cls-29" d="M406.19,403a302.18,302.18,0,0,0,7.22,56.73c4.09,17.38,4.93,52,5,76.75a16.48,16.48,0,0,0,4.37-2.22,4.14,4.14,0,0,0,1.66-3.5c-.13-4.58-.41-16.71.07-28.84.6-15.38,1.79-44.34,1.79-44.34l-5.42-48.55-10.08-2.24c.52-2.82,1.08-6.06,1.48-8.34Z" transform="translate(-67.72 -16.9)"/><path class="cls-28" d="M414.73,405.46a221.24,221.24,0,0,0,11.57,73.78v0c2.47,6.17,4.37,11.16,4.9,13.27,1.1,4.36,6.09,48.08,7.29,58.64a11.42,11.42,0,0,0,1.66,4.84c1.81,2.9,4.43,5.36,9.16,4.92a21.77,21.77,0,0,0,4-.79,29.34,29.34,0,0,0,5.08-2.06,3.83,3.83,0,0,0,2.09-3.53c-.34-11.31-1.81-60.92-2.75-67.11-1-7-5.35-22.24-7.37-50.23a30.16,30.16,0,0,1,1.25-12,32.08,32.08,0,0,0,.32-19.48l-2.93,1.1c.06-2.65.17-3.85.17-3.85l-1,0-34.53.73Z" transform="translate(-67.72 -16.9)"/><path class="cls-29" d="M437.09,426.4c-1,9.83,10.19,53.52,11.37,64.73s4.82,69,4.82,69h0a29.34,29.34,0,0,0,5.08-2.06,3.83,3.83,0,0,0,2.09-3.53c-.34-11.31-1.81-60.92-2.75-67.11-1-7-5.35-22.24-7.37-50.23a30.16,30.16,0,0,1,1.25-12,32.08,32.08,0,0,0,.32-19.48l-2.93,1.1c.06-2.65.17-3.85.17-3.85l-1,0c-6.26,3.46-11.57,6.77-11.57,6.77A58.31,58.31,0,0,1,437.09,426.4Z" transform="translate(-67.72 -16.9)"/><path class="cls-40" d="M452.13,404.9a21.22,21.22,0,0,1,.55,2.69,1.31,1.31,0,0,1-.55,1.29,37.87,37.87,0,0,1-7.45,3.54c-4.83,1.83-11.24,2.11-15.87,1.68-1.95-.18-21-4.39-32.41-11.6a8.54,8.54,0,0,1-3.8-8.62v-.07C393,391.56,452.13,404.9,452.13,404.9Z" transform="translate(-67.72 -16.9)"/><path class="cls-11" d="M378.71,347.91a20.51,20.51,0,0,0,2.41,1.68s.06,0,.09,0a1.58,1.58,0,0,1,.26.17,43.4,43.4,0,0,0,13.85,4.51c.06,2.11.12,4.23.18,6.35a69.86,69.86,0,0,1-1,14.15c-.7,4-1.54,8.82-2.08,12.34-1.08,7,.8,12,4.28,14.11v0l.07,0c11.18,6.92,24.11,10.08,31,11.38a33.5,33.5,0,0,0,3.35.45,29,29,0,0,0,7.2-.3,23.25,23.25,0,0,0,2.92-.64l.9-.28a12.65,12.65,0,0,0,3-1.39c4.56-2.9,4.91-5.11,5.23-7.69.26-2.24-2.71-13.5-3.2-17.27-.13-1-.21-1.53-.21-1.53l-.11-.86a22.5,22.5,0,0,1-.09-3.83.78.78,0,0,1,0-.13,10.1,10.1,0,0,1,.43-2.39c.07-.22.15-.45.24-.69a.07.07,0,0,1,0-.06c0-.07.06-.17.07-.26,4.54-2.06,8.49-7.43,12.86-17.39,4.24-9.66,3.75-29.94,2.39-38a17.34,17.34,0,0,0-.64-2.71c-.77-2.15-3.07-4.69-5.68-7v0a65.25,65.25,0,0,0-7.66-5.83l-.26-.17a59.59,59.59,0,0,0-5.87-3.4c-2-1-4.51-2.13-8.08-3.53-1.27-.5-2.58-1-3.91-1.36-2.45-.75-5-1.36-7.5-1.89-3.91-.82-7.87-1.46-11.66-2.19q-1,0-2,.06c-9.74.64-18.28,6.82-22.67,15.53-3.61,7.18-8.64,18.09-9.7,25.24C375.91,341.85,376.51,345.68,378.71,347.91Z" transform="translate(-67.72 -16.9)"/><path class="cls-41" d="M403.15,354.36c4,3.66,12.17,10.58,21.18,14.19a47.62,47.62,0,0,0,18.9,3.44,7.87,7.87,0,0,0,3.85-.34c2.65-1.23,6.57-5.6,10.31-17.35,3.1-9.72,2.14-26,.45-36.21C452,308.13,443.06,307,443.06,307h0a18.46,18.46,0,0,1-10.21-.37,12.16,12.16,0,0,0-8.49.29,61.9,61.9,0,0,1-6.61,2.34l-2.49,1.81-1.68,26.6L410.7,331l2.21-22.62,8.47-10.82,9.35-1.12c1.33.41,2.64.86,3.91,1.36A74.46,74.46,0,0,1,445.78,303l.25.15.9.54,1,.64.63.4.26.17a65.25,65.25,0,0,1,7.66,5.83v0c2.62,2.32,4.92,4.86,5.68,7,0,.14.1.29.15.47a20.88,20.88,0,0,1,.49,2.24h0c1.37,8,1.86,28.29-2.38,38-4.37,10-8.32,15.33-12.86,17.39,0,0-23.87,3.33-45.24-21.44Z" transform="translate(-67.72 -16.9)"/><path class="cls-42" d="M432.71,283.73v10.51S422,302,416.24,300.87c-2.46-.48-3.75-3.63-3.23-8.07l5.2-1.05Z" transform="translate(-67.72 -16.9)"/><path class="cls-11" d="M415,300.26,410.69,306s-2.08-7.16,2-11.56,4.15-.58,4.15-.58S413.08,298.19,415,300.26Z" transform="translate(-67.72 -16.9)"/><path class="cls-23" d="M403,269.74a60.77,60.77,0,0,0,.94,16.84c1.82,8,2.37,9.86,5.61,11.29s6.16,1.58,11.61-1.92a27.4,27.4,0,0,0,8.43-9.21s.78.51,2.73-1.69c3-3.44,3.63-5.16,3.63-9.83a32.56,32.56,0,0,0-4.8-16.64c-3.63-6.1-14.79-4.15-19.85-1.56S404,264.53,403,269.74Z" transform="translate(-67.72 -16.9)"/><path class="cls-32" d="M398.61,270.14c5.57,9.85,19.46,3.36,19.46,3.36,1,4.28,4,4.67,5.46,5.46s1.74,4.93,1.74,4.93h1.31a29.82,29.82,0,0,1,.71-6.24c.65-2.07,4.54-3.68,6.49-.64,1.76,2.73-.26,5.78-1.42,8-.37,3.59.36,5.08.36,5.08a17.08,17.08,0,0,0,3.53-6.37c1.42-4.28,2.47-13.23,0-22.84a10.39,10.39,0,0,0-1.14-2.77c-4.26-7.2-16.41-8.6-21.18-7-4.11,1.4-14.3,6-16.21,12.62A8,8,0,0,0,398.61,270.14Z" transform="translate(-67.72 -16.9)"/><path class="cls-28" d="M398.19,466.54q.11.79.22,1.51Q398.31,467.16,398.19,466.54Z" transform="translate(-67.72 -16.9)"/><path class="cls-28" d="M398,465.23c0,.07,0,.13,0,.21C398,465.31,398,465.23,398,465.23Z" transform="translate(-67.72 -16.9)"/><path class="cls-43" d="M441.19,342.78s2.15-9,1.84-14.9-3.58-.62-3.89,4.21S436,347.35,436,347.35" transform="translate(-67.72 -16.9)"/><path class="cls-11" d="M432.7,293.17a10.09,10.09,0,0,1,1.17,2.18,21.45,21.45,0,0,1,.75,2.44s-5.7,6.69-17.77,10.58l-.08-7.41S427.35,299.51,432.7,293.17Z" transform="translate(-67.72 -16.9)"/><path class="cls-23" d="M425.13,349.67s4.43-.45,12.79,3.12a50.31,50.31,0,0,0,3.27-10,1.42,1.42,0,0,0-.17-.34c-2.34-3.74-14.94-1.4-14.94-1.4Z" transform="translate(-67.72 -16.9)"/><path class="cls-23" d="M396.32,335.36c2.47.06,5.76.45,8.69.84-.22-.71-.51-9.65-7.22-10.43-.56,2.9-1,5.51-1.2,7.29-.06.41-.09.77-.13,1.08s-.07.56-.09.77S396.32,335.36,396.32,335.36Z" transform="translate(-67.72 -16.9)"/><path class="cls-16" d="M395.33,354.3a44.73,44.73,0,0,0,3,3.93v0a79.52,79.52,0,0,0,15.09,13.83c1.83,1.31,3.81,2.6,5.94,3.83l.37.22a34.23,34.23,0,0,1,16.86,26.38c.32,3.44.43,6.28.06,7.31-.86,2.34-3.79,3.08-5.51,3.33a29,29,0,0,0,7.2-.3,23.25,23.25,0,0,0,2.92-.64l.9-.28a12.75,12.75,0,0,0,3-1.4c4.54-2.9,4.9-5.1,5.22-7.68.26-2.24-2.71-13.5-3.2-17.27-.13-1-.21-1.53-.21-1.53a23,23,0,0,1-.21-4.69.78.78,0,0,1,0-.13,10.1,10.1,0,0,1,.43-2.39c.07-.22.15-.45.24-.69a.07.07,0,0,1,0-.06c0-.07.06-.17.07-.26s-14.8,2.06-31.54-9.18a68,68,0,0,1-13.7-12.26s-.24,0-.64,0A45,45,0,0,1,395.33,354.3Z" transform="translate(-67.72 -16.9)"/><path class="cls-16" d="M446.84,382.73s6.66,18.21,6.43,22.88-14.94,7.23-14.94,7.23L444.62,396Z" transform="translate(-67.72 -16.9)"/><path class="cls-43" d="M402.8,311s-.94-1.17-2.93,1.52-9.11,19.39-9.23,23S412,337.27,412,337.27a154.49,154.49,0,0,0-15.7-1.91S398.24,317.17,402.8,311Z" transform="translate(-67.72 -16.9)"/><path class="cls-41" d="M437.91,352.8s2.31,2.66,1.84,4.21-3-.86-8.72-2.11-22-1-22-1,13.19-2.92,15.93-2.76l.21-1.45A25.78,25.78,0,0,1,437.91,352.8Z" transform="translate(-67.72 -16.9)"/><path class="cls-28" d="M416.76,300.95l.08,7.41-2.56,2.36-3.59-1.15V306l4.26-5.72A3,3,0,0,0,416.76,300.95Z" transform="translate(-67.72 -16.9)"/><path class="cls-28" d="M413.58,337.66c.3-14.58.71-26.94.71-26.94l-3.59-1.16c-1.2,5.48-2.88,15.85-4.51,26.81C406.19,336.37,409.24,336.86,413.58,337.66Z" transform="translate(-67.72 -16.9)"/><path class="cls-28" d="M401,376.79l3.65,9.55a.79.79,0,0,0,1.25.34l6.79-5.61a2.8,2.8,0,0,0,1-2.32c-.11-1.85-.21-4.11-.26-6.67-.06-2.24-.09-4.73-.09-7.37v0c-.45-.34-.9-.67-1.35-1s-.83-.69-1.24-1c-.84-.7-1.76-1.51-2.73-2.4-.53-.49-1.05-1-1.58-1.49-.3-.26-.6-.58-.9-.88-.5-.5-1-1-1.5-1.57-.21-.21-.41-.41-.6-.64-.36,2.52-.69,4.92-1,7.12-.8,6-1.42,10.52-1.64,12.34A3.43,3.43,0,0,0,401,376.79Z" transform="translate(-67.72 -16.9)"/><path class="cls-44" d="M402.44,362.77a80.27,80.27,0,0,0,11,9.31c-.06-2.24-.09-4.73-.09-7.37v0c-.45-.34-.9-.67-1.35-1-1.81-1.65-3.7-3.07-5.55-4.92-.3-.26-.6-.58-.9-.88-.5-.5-1-1-1.5-1.57-.21-.21-.41-.41-.6-.64C403.07,358.17,402.74,360.56,402.44,362.77Z" transform="translate(-67.72 -16.9)"/><path class="cls-18" d="M398.61,270.14c5.57,9.85,19.46,3.36,19.46,3.36,1,4.28,4,4.67,5.46,5.46s1.74,4.93,1.74,4.93h1.31a29.82,29.82,0,0,1,.71-6.24c.65-2.07,4.54-3.68,6.49-.64,1.76,2.73-.26,5.78-1.42,8-.37,3.59.36,5.08.36,5.08a17.08,17.08,0,0,0,3.53-6.37c1.42-4.28,2.47-13.23,0-22.84a10.39,10.39,0,0,0-1.14-2.77c-2.34,2-9,7.44-16.08,10.39-8.73,3.66-15.5,2.88-17.68,1s-3.33-3.38-3.61-5.74l0,0A8,8,0,0,0,398.61,270.14Z" transform="translate(-67.72 -16.9)"/><path class="cls-18" d="M591.11,403.88q-.11-.73-.22-1.51Q591,403,591.11,403.88Z" transform="translate(-67.72 -16.9)"/><path class="cls-18" d="M590.71,401.27c0-.07,0-.13,0-.21S590.69,401.13,590.71,401.27Z" transform="translate(-67.72 -16.9)"/><path class="cls-45" d="M296.38,197.95v55.74a4.57,4.57,0,0,0,2,3.77l.17.11,18.22,11.23L354.37,292a1.75,1.75,0,0,0,2,0l7.38-4.55a2.15,2.15,0,0,0,1.05-1.86V231.67a6,6,0,0,0-2.88-5.16l-55.3-34.11a2.27,2.27,0,0,0-2.33,0l-7,4.27a1.12,1.12,0,0,0-.25.14A1.4,1.4,0,0,0,296.38,197.95Z" transform="translate(-67.72 -16.9)"/><path class="cls-9" d="M296.38,197.95v55.74a4.57,4.57,0,0,0,2,3.77l.17.11,18.22,11.23L354.37,292a1.75,1.75,0,0,0,2,0,1.82,1.82,0,0,0,.83-1.53V236.11a5.76,5.76,0,0,0-2.69-4.85l-56-34.5a1.35,1.35,0,0,0-1.25-.11,1.12,1.12,0,0,0-.25.14A1.4,1.4,0,0,0,296.38,197.95Z" transform="translate(-67.72 -16.9)"/><path class="cls-11" d="M324,232.64l-3.73,5.57a.85.85,0,0,1-1,.32l-8.08-3.12a.85.85,0,0,0-1,1.26l6.44,9.71a.85.85,0,0,1,.13.63l-1.66,8.8a.85.85,0,0,0,.83,1l8.64.05a.85.85,0,0,1,.61.27l7.89,8.35a.85.85,0,0,0,1.45-.71l-1.39-8.83a.85.85,0,0,1,.49-.91l6.11-2.71a.85.85,0,0,0,.13-1.48l-9.72-6.58a.85.85,0,0,1-.31-.39l-4.32-11.06A.85.85,0,0,0,324,232.64Z" transform="translate(-67.72 -16.9)"/><path class="cls-46" d="M554.88,423.89v37.57a3.08,3.08,0,0,0,1.33,2.54l.11.07,12.28,7.57L594,487.28a1.18,1.18,0,0,0,1.33,0l5-3.07a1.45,1.45,0,0,0,.71-1.25V446.63a4,4,0,0,0-1.94-3.48l-37.27-23a1.53,1.53,0,0,0-1.57,0L555.46,423a.76.76,0,0,0-.17.09A1,1,0,0,0,554.88,423.89Z" transform="translate(-67.72 -16.9)"/><path class="cls-47" d="M554.88,423.89v37.57a3.08,3.08,0,0,0,1.33,2.54l.11.07,12.28,7.57L594,487.28a1.18,1.18,0,0,0,1.33,0,1.23,1.23,0,0,0,.56-1V449.62a3.88,3.88,0,0,0-1.81-3.27L556.3,423.09a.91.91,0,0,0-.84-.07.76.76,0,0,0-.17.09A1,1,0,0,0,554.88,423.89Z" transform="translate(-67.72 -16.9)"/><path class="cls-11" d="M569.61,445.19c0,3,2.41,6.83,5.38,8.62s5.38.82,5.38-2.15S578,444.83,575,443,569.61,442.22,569.61,445.19Z" transform="translate(-67.72 -16.9)"/><path class="cls-11" d="M562.8,460l24.36,14.64c0-6.72-5.45-15.4-12.18-19.44-3.35-2-6.4-2.48-8.61-1.6S562.8,456.62,562.8,460Z" transform="translate(-67.72 -16.9)"/><path class="cls-48" d="M554.88,550.06v37.57a3.08,3.08,0,0,0,1.33,2.54l.11.07,12.28,7.57L594,613.44a1.18,1.18,0,0,0,1.33,0l5-3.07a1.45,1.45,0,0,0,.71-1.25V572.79a4,4,0,0,0-1.94-3.48l-37.27-23a1.53,1.53,0,0,0-1.57,0l-4.73,2.88a.76.76,0,0,0-.17.09A1,1,0,0,0,554.88,550.06Z" transform="translate(-67.72 -16.9)"/><path class="cls-49" d="M554.88,550.06v37.57a3.08,3.08,0,0,0,1.33,2.54l.11.07,12.28,7.57L594,613.44a1.18,1.18,0,0,0,1.33,0,1.23,1.23,0,0,0,.56-1V575.78a3.88,3.88,0,0,0-1.81-3.27L556.3,549.25a.91.91,0,0,0-.84-.07.76.76,0,0,0-.17.09A1,1,0,0,0,554.88,550.06Z" transform="translate(-67.72 -16.9)"/><path class="cls-50" d="M606.39,532.69v37.57a3.08,3.08,0,0,0,1.33,2.54l.11.07,12.28,7.57,25.37,15.63a1.18,1.18,0,0,0,1.33,0,1.23,1.23,0,0,0,.56-1V558.41a3.88,3.88,0,0,0-1.81-3.27l-37.74-23.25a.91.91,0,0,0-.84-.07.76.76,0,0,0-.17.09A1,1,0,0,0,606.39,532.69Z" transform="translate(-67.72 -16.9)"/><polygon class="cls-11" points="494.49 548.13 494.49 550.73 506.67 565.02 518.87 565.96 518.87 563.36 494.49 548.13"/><polygon class="cls-11" points="506.67 566.54 494.49 552.25 494.49 565.59 518.87 580.82 518.87 567.47 506.67 566.54"/><path class="cls-51" d="M628.46,244.34v37.57a3.08,3.08,0,0,0,1.33,2.54l.11.07,12.28,7.57,25.37,15.63a1.18,1.18,0,0,0,1.33,0l5-3.07a1.45,1.45,0,0,0,.71-1.25V267.07a4,4,0,0,0-1.94-3.48l-37.27-23a1.53,1.53,0,0,0-1.57,0L629,243.46a.76.76,0,0,0-.17.09A1,1,0,0,0,628.46,244.34Z" transform="translate(-67.72 -16.9)"/><path class="cls-52" d="M628.46,244.34v37.57a3.08,3.08,0,0,0,1.33,2.54l.11.07,12.28,7.57,25.37,15.63a1.18,1.18,0,0,0,1.33,0,1.23,1.23,0,0,0,.56-1V270.06a3.88,3.88,0,0,0-1.81-3.27l-37.74-23.25a.91.91,0,0,0-.84-.07.76.76,0,0,0-.17.09A1,1,0,0,0,628.46,244.34Z" transform="translate(-67.72 -16.9)"/><path class="cls-53" d="M594.44,182.14v26.28a2.15,2.15,0,0,0,.93,1.78l.08.05,8.59,5.3,17.74,10.93a.83.83,0,0,0,.93,0,.86.86,0,0,0,.39-.72V200.13a2.72,2.72,0,0,0-1.27-2.29l-26.4-16.27a.63.63,0,0,0-.59-.05l-.12.07A.66.66,0,0,0,594.44,182.14Z" transform="translate(-67.72 -16.9)"/><path class="cls-53" d="M408.54,67.76V94a2.15,2.15,0,0,0,.93,1.78l.08.05,8.59,5.3,17.74,10.93a.83.83,0,0,0,.93,0,.86.86,0,0,0,.39-.72V85.76a2.72,2.72,0,0,0-1.27-2.29L409.53,67.2a.63.63,0,0,0-.59-.05l-.12.07A.66.66,0,0,0,408.54,67.76Z" transform="translate(-67.72 -16.9)"/><path class="cls-54" d="M354.14,17.89V57.21a3.22,3.22,0,0,0,1.39,2.66l.12.08,12.85,7.92L395,84.22a1.24,1.24,0,0,0,1.39,0,1.29,1.29,0,0,0,.59-1.08V44.81a4.06,4.06,0,0,0-1.9-3.42L355.63,17.05a1,1,0,0,0-.88-.08.79.79,0,0,0-.18.1A1,1,0,0,0,354.14,17.89Z" transform="translate(-67.72 -16.9)"/><path class="cls-54" d="M625.92,571.88v39.32a3.22,3.22,0,0,0,1.39,2.66l.12.08,12.85,7.92,26.54,16.35a1.24,1.24,0,0,0,1.39,0,1.29,1.29,0,0,0,.59-1.08V598.79a4.06,4.06,0,0,0-1.9-3.42L627.41,571a1,1,0,0,0-.88-.08.79.79,0,0,0-.18.1A1,1,0,0,0,625.92,571.88Z" transform="translate(-67.72 -16.9)"/><path class="cls-11" d="M650.13,291.62l11-4.38c1-.41,1-2.09,0-3.74s-2.71-2.66-3.74-2.25l-6.24,2.49-12.23-27.13c-.77-1.7-2.4-3.07-3.64-3s-1.63,1.42-.86,3.12Z" transform="translate(-67.72 -16.9)"/><path class="cls-55" d="M110.21,279.48V317a3.08,3.08,0,0,0,1.33,2.54l.11.07,12.28,7.57,25.37,15.63a1.18,1.18,0,0,0,1.33,0l5-3.07a1.45,1.45,0,0,0,.71-1.25V302.21a4,4,0,0,0-1.94-3.48l-37.27-23a1.53,1.53,0,0,0-1.57,0l-4.73,2.88a.76.76,0,0,0-.17.09A1,1,0,0,0,110.21,279.48Z" transform="translate(-67.72 -16.9)"/><path class="cls-56" d="M110.21,279.48V317a3.08,3.08,0,0,0,1.33,2.54l.11.07,12.28,7.57,25.37,15.63a1.18,1.18,0,0,0,1.33,0,1.23,1.23,0,0,0,.56-1V305.2a3.88,3.88,0,0,0-1.81-3.27l-37.74-23.25a.91.91,0,0,0-.84-.07.76.76,0,0,0-.17.09A1,1,0,0,0,110.21,279.48Z" transform="translate(-67.72 -16.9)"/><path class="cls-57" d="M67.72,288.43v44.8a3.67,3.67,0,0,0,1.58,3l.13.09,14.64,9L114.32,364a1.41,1.41,0,0,0,1.58,0,1.47,1.47,0,0,0,.67-1.23V319.1a4.63,4.63,0,0,0-2.16-3.9l-45-27.73a1.08,1.08,0,0,0-1-.09.9.9,0,0,0-.2.11A1.13,1.13,0,0,0,67.72,288.43Z" transform="translate(-67.72 -16.9)"/><path class="cls-57" d="M311.5,27.52v44.8a3.67,3.67,0,0,0,1.58,3l.13.09,14.64,9L358.1,103.1a1.41,1.41,0,0,0,1.58,0,1.47,1.47,0,0,0,.67-1.23V58.19a4.63,4.63,0,0,0-2.16-3.9l-45-27.73a1.08,1.08,0,0,0-1-.09.91.91,0,0,0-.2.11A1.13,1.13,0,0,0,311.5,27.52Z" transform="translate(-67.72 -16.9)"/><path class="cls-57" d="M335.93,367.7v44.8a3.67,3.67,0,0,0,1.58,3l.13.09,14.64,9,30.25,18.63a1.41,1.41,0,0,0,1.58,0,1.47,1.47,0,0,0,.67-1.23V398.37a4.63,4.63,0,0,0-2.16-3.9l-45-27.73a1.08,1.08,0,0,0-1-.09.9.9,0,0,0-.2.11A1.13,1.13,0,0,0,335.93,367.7Z" transform="translate(-67.72 -16.9)"/><ellipse class="cls-11" cx="71.77" cy="301.27" rx="3.1" ry="3.57"/><ellipse class="cls-11" cx="61.86" cy="295.1" rx="3.1" ry="3.57"/><ellipse class="cls-11" cx="51.96" cy="288.93" rx="3.1" ry="3.57"/><ellipse class="cls-15" cx="261.61" cy="625.17" rx="17.8" ry="9.04"/><path class="cls-58" d="M347.13,627.11v9c0,5-8,9-17.8,9s-17.8-4-17.8-9v-9Z" transform="translate(-67.72 -16.9)"/><ellipse class="cls-9" cx="261.61" cy="610.21" rx="17.8" ry="9.04"/><ellipse class="cls-11" cx="261.61" cy="610.21" rx="8.01" ry="4.07"/><ellipse class="cls-15" cx="297.2" cy="646.57" rx="17.8" ry="9.04"/><path class="cls-59" d="M382.72,648.51v9c0,5-8,9-17.8,9s-17.8-4-17.8-9v-9Z" transform="translate(-67.72 -16.9)"/><ellipse class="cls-10" cx="297.2" cy="631.61" rx="17.8" ry="9.04"/><polygon class="cls-11" points="300.41 624.61 286.55 633.08 305.94 635.57 300.41 624.61"/><ellipse class="cls-15" cx="226.02" cy="603.77" rx="17.8" ry="9.04"/><path class="cls-55" d="M311.53,605.71v9c0,5-8,9-17.8,9s-17.8-4-17.8-9v-9Z" transform="translate(-67.72 -16.9)"/><ellipse class="cls-56" cx="226.02" cy="588.81" rx="17.8" ry="9.04"/><polygon class="cls-11" points="237 586.26 223.14 594.73 217.69 583.66 237 586.26"/></g></g></svg>